<?xml version="1.0" encoding="UTF-8"?>
<svg width="22px" height="26px" viewBox="0 0 22 26" version="1.1" xmlns="http://www.w3.org/2000/svg" xmlns:xlink="http://www.w3.org/1999/xlink">
    <!-- Generator: Sketch 55 (78076) - https://sketchapp.com -->
    <title>Group 11</title>
    <desc>Created with Sketch.</desc>
    <g id="Page-1" stroke="none" stroke-width="1" fill="none" fill-rule="evenodd">
        <g id="Hosseinpour-Home" transform="translate(-622.000000, -1034.000000)">
            <g id="Group-11" transform="translate(622.000000, 1035.000000)">
                <g id="Group-3" stroke="#FFFFFF">
                    <path d="M10.8866397,6.28113692 C13.4777328,6.31582664 14.7732794,5.61766089 14.7732794,4.18663968 C14.7732794,2.04010786 13.0331715,0.3 10.8866397,0.3 C8.74010786,0.3 7,2.04010786 7,4.18663968 C7,5.61766089 8.29554656,6.31582664 10.8866397,6.28113692 Z" id="Oval"></path>
                    <path d="M4.69887597,6.28947368 C3.44774745,6.28947368 2.38926635,7.21434639 2.2214636,8.45417091 L0.534869772,20.9157094 C0.519828397,21.0268438 0.512282141,21.1388644 0.512282141,21.2510121 C0.512282141,22.631724 1.63157027,23.7510121 3.01228214,23.7510121 L18.3552559,23.7510121 C18.4674036,23.7510121 18.5794242,23.7434659 18.6905587,23.7284245 C20.0587957,23.5432419 21.0178509,22.2839464 20.8326682,20.9157094 L19.1460744,8.45417091 C18.9782717,7.21434639 17.9197906,6.28947368 16.668662,6.28947368 L4.69887597,6.28947368 Z" id="Rectangle"></path>
                </g>
                <g id="Group-9" transform="translate(7.000000, 11.000000)" fill="#FFFFFF">
                    <rect id="Rectangle" x="0" y="4" width="8" height="1" rx="0.5"></rect>
                    <path d="M0.4,4 L7.6,4 C7.8209139,4 8,4.1790861 8,4.4 L8,4.4 C8,4.6209139 7.8209139,4.8 7.6,4.8 L0.4,4.8 C0.1790861,4.8 2.705415e-17,4.6209139 0,4.4 L0,4.4 C-2.705415e-17,4.1790861 0.1790861,4 0.4,4 Z" id="Rectangle-Copy" transform="translate(4.000000, 4.400000) rotate(90.000000) translate(-4.000000, -4.400000) "></path>
                </g>
            </g>
        </g>
    </g>
</svg>