<?xml version="1.0" encoding="UTF-8"?>
<svg width="22px" height="26px" viewBox="0 0 22 26" version="1.1" xmlns="http://www.w3.org/2000/svg" xmlns:xlink="http://www.w3.org/1999/xlink">
    <!-- Generator: Sketch 55 (78076) - https://sketchapp.com -->
    <title>Group 51</title>
    <desc>Created with Sketch.</desc>
    <g id="Page-1" stroke="none" stroke-width="1" fill="none" fill-rule="evenodd">
        <g id="Hosseinpour-Home" transform="translate(-311.000000, -1034.000000)">
            <g id="Group-51" transform="translate(311.000000, 1034.300000)">
                <g id="Group-11-Copy-2" transform="translate(0.000000, 0.700000)">
                    <g id="Group-3-Copy-3"></g>
                    <g id="Group-9" transform="translate(7.000000, 11.000000)"></g>
                </g>
                <path d="M10.8866397,6.98113692 C13.4777328,7.01582664 14.7732794,6.31766089 14.7732794,4.88663968 C14.7732794,2.74010786 13.0331715,1 10.8866397,1 C8.74010786,1 7,2.74010786 7,4.88663968 C7,6.31766089 8.29554656,7.01582664 10.8866397,6.98113692 Z" id="Oval" stroke="#480000"></path>
                <path d="M4.69887597,6.98947368 C3.44774745,6.98947368 2.38926635,7.91434639 2.2214636,9.15417091 L0.534869772,21.6157094 C0.519828397,21.7268438 0.512282141,21.8388644 0.512282141,21.9510121 C0.512282141,23.331724 1.63157027,24.4510121 3.01228214,24.4510121 L18.3552559,24.4510121 C18.4674036,24.4510121 18.5794242,24.4434659 18.6905587,24.4284245 C20.0587957,24.2432419 21.0178509,22.9839464 20.8326682,21.6157094 L19.1460744,9.15417091 C18.9782717,7.91434639 17.9197906,6.98947368 16.668662,6.98947368 L4.69887597,6.98947368 Z" id="Rectangle" stroke="#480000"></path>
                <rect id="Rectangle" fill="#480000" x="7" y="15.7" width="8" height="1" rx="0.5"></rect>
                <path d="M7.4,15.7 L14.6,15.7 C14.8209139,15.7 15,15.8790861 15,16.1 L15,16.1 C15,16.3209139 14.8209139,16.5 14.6,16.5 L7.4,16.5 C7.1790861,16.5 7,16.3209139 7,16.1 L7,16.1 C7,15.8790861 7.1790861,15.7 7.4,15.7 Z" id="Rectangle-Copy" fill="#480000" transform="translate(11.000000, 16.100000) rotate(90.000000) translate(-11.000000, -16.100000) "></path>
            </g>
        </g>
    </g>
</svg>