<?xml version="1.0" encoding="UTF-8"?>
<svg width="19px" height="21px" viewBox="0 0 19 21" version="1.1" xmlns="http://www.w3.org/2000/svg" xmlns:xlink="http://www.w3.org/1999/xlink">
    <!-- Generator: Sketch 55 (78076) - https://sketchapp.com -->
    <title>Group 3</title>
    <desc>Created with Sketch.</desc>
    <g id="Page-1" stroke="none" stroke-width="1" fill="none" fill-rule="evenodd">
        <g id="Hosseinpour-Home" transform="translate(-135.000000, -97.000000)" stroke="#480000" stroke-width="2">
            <g id="Group-50" transform="translate(120.000000, 83.000000)">
                <g id="Group-3" transform="translate(15.000000, 15.000000)">
                    <path d="M5.93571714,4 C5.89529833,3.79177695 5.87412587,3.5766827 5.87412587,3.35664336 C5.87412587,1.50282042 7.37694629,0 9.23076923,0 C11.0845922,0 12.5874126,1.50282042 12.5874126,3.35664336 C12.5874126,3.5766827 12.5662401,3.79177695 12.5258213,4 L5.93571714,4 Z" id="Combined-Shape"></path>
                    <path d="M4.41557295,4.35664336 C3.41467013,4.35664336 2.56788525,5.09654152 2.43364305,6.08840114 L1.08777524,16.0324571 C1.07574214,16.1213646 1.06970514,16.2109811 1.06970514,16.3006993 C1.06970514,17.4052688 1.96513564,18.3006993 3.06970514,18.3006993 L15.3840777,18.3006993 C15.4737959,18.3006993 15.5634124,18.2946623 15.6523199,18.2826292 C16.7469096,18.1344831 17.5141537,17.1270467 17.3660076,16.0324571 L16.0201398,6.08840114 C15.8858976,5.09654152 15.0391127,4.35664336 14.0382099,4.35664336 L4.41557295,4.35664336 Z" id="Rectangle"></path>
                </g>
            </g>
        </g>
    </g>
</svg>