<svg xmlns="http://www.w3.org/2000/svg" width="100" height="100" viewBox="0 0 100 100">
    <g fill="none" fill-rule="evenodd">
        <path fill="#480000" fill-rule="nonzero" d="M32.744 64.844l2.512 1.05V48.962L30.7 59.95c-.769 1.912.15 4.106 2.044 4.894zm36.562-6.938l-9.3-22.444c-.581-1.406-1.95-2.268-3.393-2.306-.488 0-.994.075-1.482.282l-13.818 5.718a3.748 3.748 0 0 0-2.307 3.375 3.498 3.498 0 0 0 .282 1.5l9.3 22.444c.58 1.425 1.968 2.288 3.43 2.306.488 0 .976-.094 1.445-.281l13.8-5.719c1.912-.787 2.83-2.981 2.043-4.875zm-26.531-13.5a1.88 1.88 0 0 1-1.875-1.875 1.88 1.88 0 0 1 1.875-1.875 1.88 1.88 0 0 1 1.875 1.875 1.88 1.88 0 0 1-1.875 1.875zm-3.75 20.625a3.761 3.761 0 0 0 3.75 3.75h2.719l-6.469-15.637V65.03z"/>
        <path d="M28 28h45v45H28z"/>
    </g>
</svg>
