<svg xmlns="http://www.w3.org/2000/svg" width="100" height="100" viewBox="0 0 100 100">
    <g fill="none" fill-rule="evenodd">
        <path fill="#480000" fill-rule="nonzero" d="M50.481 31.75c-10.35 0-18.731 8.4-18.731 18.75s8.381 18.75 18.731 18.75c10.369 0 18.769-8.4 18.769-18.75s-8.4-18.75-18.769-18.75zM50.5 65.5c-8.287 0-15-6.712-15-15 0-8.287 6.713-15 15-15 8.288 0 15 6.713 15 15 0 8.288-6.712 15-15 15z"/>
        <path d="M28 28h45v45H28z"/>
        <path fill="#480000" fill-rule="nonzero" d="M51.438 41.125h-2.813v11.25l9.844 5.906 1.406-2.306-8.438-5.006z"/>
    </g>
</svg>
