<svg xmlns="http://www.w3.org/2000/svg" width="100" height="100" viewBox="0 0 100 100">
    <g fill="none" fill-rule="evenodd">
        
        <path d="M28 28h45v45H28z"/>
        <path fill="#480000" fill-rule="nonzero" d="M50.5 69.25c9.319 0 16.875-7.556 16.875-16.875-9.319 0-16.875 7.556-16.875 16.875zm-12-22.031a4.69 4.69 0 0 0 7.35 3.862l-.038.356a4.69 4.69 0 0 0 4.688 4.688 4.69 4.69 0 0 0 4.688-4.688l-.038-.356a4.62 4.62 0 0 0 2.663.825A4.69 4.69 0 0 0 62.5 47.22c0-1.875-1.106-3.469-2.681-4.219 1.575-.75 2.681-2.344 2.681-4.219a4.69 4.69 0 0 0-7.35-3.862l.038-.356a4.69 4.69 0 0 0-4.688-4.688 4.69 4.69 0 0 0-4.688 4.688l.038.356a4.62 4.62 0 0 0-2.663-.825A4.69 4.69 0 0 0 38.5 38.78c0 1.875 1.106 3.469 2.681 4.219-1.575.75-2.681 2.344-2.681 4.219zm12-8.907A4.69 4.69 0 0 1 55.188 43a4.69 4.69 0 0 1-4.688 4.688A4.69 4.69 0 0 1 45.812 43a4.69 4.69 0 0 1 4.688-4.688zM33.625 52.376c0 9.319 7.556 16.875 16.875 16.875 0-9.319-7.556-16.875-16.875-16.875z"/>
    </g>
</svg>
