<svg xmlns="http://www.w3.org/2000/svg" width="70" height="70" viewBox="0 0 70 70">
    <path fill="#480000" fill-rule="evenodd" d="M66.656 34.937l3.065-7.995a2.186 2.186 0 0 0-.664-2.48l-6.645-5.389-1.345-8.458a2.183 2.183 0 0 0-1.817-1.812l-8.458-1.345L45.41.808a2.187 2.187 0 0 0-2.476-.663l-8 3.07L26.938.148a2.178 2.178 0 0 0-2.475.664l-5.389 6.65-8.458 1.345a2.188 2.188 0 0 0-1.812 1.812L7.46 19.078.81 24.466c-.734.594-1 1.594-.664 2.476l3.065 7.995-3.065 7.995c-.34.882-.07 1.882.663 2.475l6.65 5.384 1.345 8.458a2.183 2.183 0 0 0 1.812 1.817l8.458 1.344 5.389 6.646a2.173 2.173 0 0 0 2.48.664l7.99-3.061 7.995 3.065a2.177 2.177 0 0 0 2.48-.668l5.384-6.646 8.458-1.344a2.187 2.187 0 0 0 1.817-1.817l1.345-8.458 6.645-5.384a2.18 2.18 0 0 0 .664-2.475l-3.065-7.995z"/>
</svg>
