<svg xmlns="http://www.w3.org/2000/svg" xmlns:xlink="http://www.w3.org/1999/xlink" width="160" height="123" viewBox="0 0 160 123">
    <defs>
        <path id="a" d="M.11.282h47.378v14.427H.11z"/>
    </defs>
    <g fill="none" fill-rule="evenodd">
        <path fill="#480000" d="M102.93 4.028c-.856.88-1.456.6-.81-.619.212-.398.516-.88.806-1.318.92-1.385 1.715-2.225 3.191-2.073 1.459.15 2.84 1.126 4.398 1.242 1.167.087 1.828.014 2.807-.64.956-.637 1.113-.532.862.4-.11.406-.328 1.092-.572 1.675-.502 1.198-.903 1.21-1.86 1.906-.378.274-.626.486-1.12.852-1.405 1.042-3.444 2.632-6.405 5.764-6.426 6.797-15.194 12.318-24.386 14.21-5.377 1.108-11.383 1.074-15.298.61-2.076-.246-5.852-1.089-6.852-3.218-.298-.634-.52-1.024-1.269-.113-.495.604-1 1.38-1.482 2.133-1.135 1.776-1.86 2.392-4.526 2.168C38.129 25.974 23.7 41.505 20.803 52.416c-2.35 8.853.737 17.876 11.592 20.233 11.937 2.592 24.739-4.732 35.971-10.284 9.562-4.725 25.918-13.927 36.126-11.03 9.493 2.694 7.984 11.367 3.95 18.427-1.875 3.282-5.818 7.804-8.858 10.527l-5.439-.005c4.271-3.238 12.664-8.76 15.136-14.54 3.064-7.167-5.639-12.274-11.813-12.418-9.417-.218-20.38 5.839-28.384 10.269-11.542 6.388-13.674 7.621-13.674 7.621s-4.314 2.346-9.439 4.002c-6.404 2.07-13.172 2.345-19.399-.574-10.438-4.894-12.038-17.315-6.093-29.87 5.832-12.318 17.834-22.028 31.37-23.6 1.264-.148 1.322 1.442 2.625 1.279.742-.093 1.98-1.597 2.487-2.176.955-1.092 1.802-2.088 2.65-1.88 1.099.27 1.903 1.12 4.164 1.521 4.456.793 10.742 1.36 15.314.858 8.813-.965 16.998-5.245 23.87-10.861 2.187-1.787 4.137-3.659 6.176-5.603.004-.003-.644-.25-1.401-.615-.714-.344-2.085-.81-3.11-.757-.847.044-1.151.53-1.695 1.088M46.57 4.855s.531-1.245.487 0c-.113 3.188.657 5.5-1.559 8.773-.752 1.111-1.166 1.531-1.435 1.74-.16.123-.31.187-.386.417-.799 2.434-1.563 5.122-3.16 6.217-.521.357-1.724.765-2.92 1.128-3.658 1.11-2.556.111-.942-.934 1.161-.752 2.393-1.455 3.397-2.418.784-.753 1.231-1.48 1.722-2.424.163-.314.17-.445-.241-.28-1.765.71-3.307-.321-2.7-2.3.42-1.373 1.249-2.764 1.99-3.692 1.148-1.44 3.069-.047 3.183 1.457.448-.39.917-.746.94-1.596.022-.85-.09-2.078-.09-2.078l1.715-4.01zM50.56 8.796c-.651 1.287.055 1.576.822 2.146 1.34.998 1.614 1.027 2.543-.843.762-1.535 1.035-2.104-.22-3.3-1.63-1.556-1.497-1.252-2.492.71l-.652 1.287zM34.304 14.433c.569-1.297.93-.846.794.252-.149 1.202-.603 2.734-1.132 4.178-.525 1.432-1.405 3.937-2.453 5.053-.5.532-1.186.916-2.073 1.191-2.432.756-3.316.8-3.316.8-1.046.089-.832-.426-.035-1.053.997-.786 2.191-1.175 3.198-1.914 1.247-.915 2.014-2.103 3.064-4.085.82-1.546 1.508-3.257 1.953-4.422"/>
        <path fill="#480000" d="M40.605 37.576c.186.277.512.499.847.78 1.28 1.075 1.552 1.12 2.587-.694.85-1.487 1.156-2.038-.028-3.307-1.538-1.648-1.423-1.337-2.529.564l-.726 1.246c-.12-.314-.366-.638-.778-1.031-1.63-1.555-1.497-1.251-2.492.71l-.652 1.288c-.653 1.286.054 1.575.82 2.146 1.34.998 1.615 1.027 2.543-.844.162-.324.3-.605.408-.858"/>
        <path fill="#480000" d="M39.275 42.088c-.672 1.156-.033 1.461.646 2.031 1.186.996 1.438 1.038 2.398-.643.788-1.38 1.072-1.89-.026-3.067-1.426-1.527-1.318-1.239-2.344.523l-.674 1.156zM43.957 66.03c.185.277.511.499.847.78 1.28 1.075 1.551 1.12 2.587-.693.85-1.488 1.155-2.04-.029-3.308-1.538-1.648-1.422-1.337-2.528.564l-.726 1.246c-.12-.314-.367-.638-.779-1.031-1.63-1.555-1.497-1.251-2.492.71l-.652 1.288c-.652 1.286.055 1.575.821 2.146 1.34.998 1.614 1.027 2.543-.844.16-.324.3-.605.408-.858M103.937 91.894c.006.054.023.1.046.14.02.044.07.067.14.074.026 0 .072.003.138.01l.239.02.298.02c.106.006.212.01.314.01.434 0 .811-.087 1.139-.264.328-.176.599-.422.814-.736.219-.316.378-.689.487-1.121.106-.433.159-.91.159-1.429 0-1.075-.212-1.86-.64-2.36-.426-.503-1.055-.753-1.883-.753-.089 0-.172 0-.251.003l-.232.01-.248.01-.295.017c-.04 0-.09.007-.152.023-.06.017-.093.06-.093.134v5.9l.02.292zm-4.363 6.79c-.053 0-.076-.033-.076-.097v-.41l.006-.046c.007-.02.03-.033.07-.033.219 0 .424-.034.616-.097.192-.067.357-.153.5-.263.142-.11.255-.243.337-.4.086-.156.13-.326.13-.509V86.92c0-.326-.033-.582-.1-.766a.836.836 0 0 0-.285-.42.953.953 0 0 0-.477-.176 5.525 5.525 0 0 0-.661-.033h-.437c-.073 0-.123-.04-.156-.123a.56.56 0 0 1-.05-.21c0-.033.007-.08.02-.147.014-.063.05-.103.106-.116h.063c.036 0 .1 0 .189-.003.093-.004.212-.007.364-.01l.599-.017c.354-.007.735-.017 1.139-.027l1.225-.04c.414-.013.824-.026 1.228-.033.403-.01.784-.017 1.139-.017h1.367c.52 0 1.023.09 1.513.263.493.177.93.436 1.31.776.38.343.689.766.92 1.272.232.51.352 1.096.352 1.758 0 .416-.063.813-.186 1.196-.123.38-.288.729-.5 1.048a4.779 4.779 0 0 1-.728.863 5.011 5.011 0 0 1-.86.649c-.302.177-.61.31-.918.4-.271.07-.526.106-.768.106h-.106l-2.317-.116h-.079a.18.18 0 0 0-.096.02.107.107 0 0 0-.04.04c-.007.01-.01.036-.01.076v3.67c0 .253.07.462.209.625.139.167.32.3.546.396.222.097.473.167.751.21.278.044.553.064.825.064.036 0 .06.01.066.03.007.02.01.036.01.05v.429c0 .01-.003.027-.013.047-.01.02-.034.03-.063.03h-6.674zm-22.878 0c-.013 0-.03-.007-.046-.024-.02-.016-.03-.036-.03-.053v-.43c0-.053.027-.08.076-.08h.242c.093 0 .182-.003.268-.01.086-.006.166-.012.239-.02a.493.493 0 0 0 .165-.036c.159-.08.295-.183.397-.313.103-.13.182-.28.239-.45.053-.17.09-.352.11-.556.019-.2.029-.416.029-.642v-9.746a.505.505 0 0 0-.209-.423 1.472 1.472 0 0 0-.483-.246 3.355 3.355 0 0 0-.563-.11 4.603 4.603 0 0 0-.434-.03c-.033 0-.053-.01-.062-.03a.114.114 0 0 1-.014-.05v-.426c0-.013.004-.03.014-.05.01-.02.03-.03.062-.03h4.393l8.362 9.306c.033.034.053.057.067.073.012.017.03.024.049.024.026 0 .043-.01.05-.027.006-.02.006-.04.006-.06v-5.793c0-.646-.02-1.159-.066-1.549-.046-.386-.129-.682-.251-.885a.872.872 0 0 0-.497-.406 2.752 2.752 0 0 0-.795-.097h-.493c-.033 0-.053-.01-.063-.03a.125.125 0 0 1-.016-.05v-.426c0-.013.006-.03.016-.05.01-.02.03-.03.063-.03h5.333c.04 0 .063.01.07.03.006.02.01.037.01.05v.426c0 .013-.007.03-.017.05-.01.02-.03.03-.063.03-.129 0-.295.027-.5.076-.202.054-.4.127-.595.227a1.793 1.793 0 0 0-.5.36.683.683 0 0 0-.209.489v11.537a.495.495 0 0 1-.076.28.643.643 0 0 1-.199.18 1.096 1.096 0 0 1-.52.136c-.128 0-.28-.026-.45-.083-.172-.053-.34-.176-.51-.366L80.14 88.139a.411.411 0 0 0-.096-.084.178.178 0 0 0-.076-.013c-.033 0-.05.03-.05.097v8.71c0 .183.043.34.13.473.089.133.201.246.337.343.136.093.285.17.45.223a3.99 3.99 0 0 0 .91.196c.126.01.222.014.289.014a.07.07 0 0 1 .066.04.09.09 0 0 1 .01.04v.429c0 .01-.003.027-.013.047-.01.02-.033.03-.063.03h-5.337zm-3.105-1.855c0 .223.034.406.103.556.07.15.166.27.291.363.126.09.282.156.467.193.182.04.388.06.616.06.05 0 .076.026.076.077v.529a.148.148 0 0 1-.01.053c-.007.017-.03.024-.066.024h-5.734c-.033 0-.052-.01-.062-.03a.11.11 0 0 1-.014-.047v-.53a.1.1 0 0 1 .014-.046c.01-.02.03-.03.062-.03.226 0 .43-.017.616-.043.186-.03.341-.093.47-.19.13-.1.232-.24.301-.42.073-.183.106-.43.106-.742v-9.823c0-.222-.033-.406-.099-.555a.927.927 0 0 0-.291-.364 1.243 1.243 0 0 0-.467-.193c-.185-.04-.39-.06-.616-.06-.053 0-.076-.026-.076-.076v-.526c0-.053.023-.08.076-.08h5.73c.033 0 .057.01.063.03.01.02.017.037.017.05v.526c0 .013-.007.03-.017.046-.006.02-.03.03-.063.03a4.3 4.3 0 0 0-.615.044c-.182.03-.341.093-.47.193a.94.94 0 0 0-.301.42c-.07.18-.107.426-.107.739v9.822zM55.76 98.187l.006-.046c.007-.02.03-.033.07-.033h.212c.271-.02.55-.03.834-.033.285-.004.543-.04.778-.107.232-.07.424-.19.573-.363.145-.17.221-.44.221-.802v-9.99c0-.256-.052-.462-.155-.619a1.162 1.162 0 0 0-.407-.386c-.17-.1-.358-.17-.573-.22a8.19 8.19 0 0 0-.649-.123h-.205c-.03 0-.053-.01-.063-.03a.09.09 0 0 1-.013-.047v-.38c0-.012.003-.03.013-.05.01-.019.033-.03.063-.03h9.66c.118 0 .201.02.254.064.05.043.083.136.096.28l.176 3.12c0 .033-.03.056-.083.073a.638.638 0 0 1-.308.007c-.05-.014-.086-.034-.106-.06a.687.687 0 0 1-.096-.286l-.063-.427a5.814 5.814 0 0 0-.096-.486 1.727 1.727 0 0 0-.192-.47 1.236 1.236 0 0 0-.344-.376 1.32 1.32 0 0 0-.556-.22h-3.463c-.082 0-.125.044-.125.127v4.655c0 .063.033.097.096.097h2.774c.162 0 .32-.02.48-.064a.994.994 0 0 0 .417-.23c.119-.11.218-.263.29-.462.074-.197.114-.453.114-.766 0-.05.026-.077.076-.077h.377c.053 0 .08.027.08.077v4.468c0 .034-.01.053-.03.064a.108.108 0 0 1-.05.013h-.377c-.033 0-.053-.01-.063-.027a.11.11 0 0 1-.013-.05c0-.363-.04-.66-.113-.882a1.318 1.318 0 0 0-.295-.526.925.925 0 0 0-.423-.257 2.032 2.032 0 0 0-.5-.063h-2.744c-.063 0-.096.033-.096.1v4.262c0 .19.03.34.085.453.06.113.14.2.239.26.1.056.215.096.344.116.13.02.265.03.407.03h2.649c.374 0 .688-.087.94-.26.252-.173.457-.382.612-.629.156-.246.268-.503.345-.77.072-.266.119-.495.138-.682a.283.283 0 0 1 .126-.2.416.416 0 0 1 .245-.073c.03 0 .07.014.116.037.043.026.066.057.066.09l-.32 3.57a.292.292 0 0 1-.054.092.094.094 0 0 1-.08.044h-11.24c-.04 0-.064-.01-.07-.033l-.007-.044V98.187zm-9.296.233c-.082 0-.135-.07-.152-.206a148.33 148.33 0 0 1-.248-2.184c-.016-.17-.027-.276-.03-.326-.003-.05-.003-.084-.003-.104 0-.07.03-.15.096-.233a.286.286 0 0 1 .232-.126c.066 0 .135.04.208.116.076.077.146.17.215.274.066.102.126.21.172.312.05.104.08.177.093.223.169.36.35.66.55.903.195.243.42.44.672.586.255.146.536.253.854.316.317.067.678.097 1.085.097.692 0 1.232-.164 1.616-.496.384-.333.576-.866.576-1.602 0-.42-.09-.806-.275-1.149a4.045 4.045 0 0 0-.722-.962 7.686 7.686 0 0 0-1.02-.842c-.38-.267-.77-.537-1.171-.81-.404-.273-.794-.559-1.175-.855a6.628 6.628 0 0 1-1.02-.98 4.886 4.886 0 0 1-.721-1.191 3.77 3.77 0 0 1-.275-1.472c0-.333.06-.64.179-.926a2.93 2.93 0 0 1 .48-.782 3.67 3.67 0 0 1 .701-.63c.269-.182.557-.339.861-.466.301-.126.613-.222.924-.29.314-.062.619-.096.916-.096.242 0 .48.02.722.064a14.863 14.863 0 0 1 1.433.343c.239.066.474.13.706.19l.642-.06c.056 0 .096.026.112.072.014.05.027.094.034.134l.28 2.29c0 .034-.042.057-.125.07-.086.014-.149.02-.195.02-.04 0-.096-.006-.176-.016-.076-.01-.122-.02-.135-.033a.47.47 0 0 1-.073-.124c-.027-.06-.06-.13-.09-.203a6.347 6.347 0 0 0-.102-.23A1.454 1.454 0 0 0 53 86.83a2.96 2.96 0 0 0-1.191-1.075 3.572 3.572 0 0 0-1.603-.357c-.251 0-.486.03-.708.087-.218.06-.41.153-.57.28a1.315 1.315 0 0 0-.383.482c-.093.193-.143.43-.143.703 0 .396.093.756.278 1.075.186.324.427.626.729.91a8.61 8.61 0 0 0 1.026.822l1.175.816c.397.276.788.569 1.172.882.384.313.728.656 1.03 1.035.3.377.542.796.724 1.26.186.459.279.978.279 1.557 0 .387-.067.743-.2 1.076-.131.33-.31.632-.539.902-.225.27-.49.506-.794.716a5.29 5.29 0 0 1-.973.523c-.348.14-.702.243-1.07.316a6.127 6.127 0 0 1-2.221.01 6.968 6.968 0 0 1-.84-.22 17.514 17.514 0 0 1-.6-.22 1.08 1.08 0 0 0-.407-.096.298.298 0 0 0-.086.01l-.623.096zm-10.543 0c-.083 0-.136-.07-.152-.206a156.488 156.488 0 0 1-.248-2.184c-.017-.17-.027-.276-.03-.326-.003-.05-.003-.084-.003-.104 0-.07.03-.15.096-.233a.286.286 0 0 1 .231-.126c.067 0 .136.04.209.116.076.077.145.17.215.274.066.102.126.21.172.312.05.104.08.177.093.223.169.36.35.66.55.903.195.243.42.44.671.586.255.146.537.253.854.316.318.067.679.097 1.086.097.692 0 1.231-.164 1.615-.496.384-.333.577-.866.577-1.602 0-.42-.09-.806-.275-1.149a4.045 4.045 0 0 0-.722-.962 7.686 7.686 0 0 0-1.02-.842c-.38-.267-.77-.537-1.171-.81-.404-.273-.795-.559-1.175-.855a6.628 6.628 0 0 1-1.02-.98 4.886 4.886 0 0 1-.722-1.191 3.77 3.77 0 0 1-.274-1.472c0-.333.06-.64.178-.926.12-.286.278-.546.48-.782.199-.233.434-.443.702-.63.268-.182.556-.339.86-.466.302-.126.613-.222.924-.29.315-.062.62-.096.917-.096.242 0 .48.02.722.064.245.043.483.093.718.153.239.056.474.12.715.19.239.066.474.13.706.19l.642-.06c.056 0 .096.026.112.072.014.05.027.094.033.134l.282 2.29c0 .034-.043.057-.126.07-.086.014-.15.02-.195.02-.04 0-.096-.006-.176-.016-.076-.01-.122-.02-.135-.033a.47.47 0 0 1-.073-.124c-.027-.06-.06-.13-.09-.203-.033-.076-.066-.153-.102-.23a1.484 1.484 0 0 0-.113-.206 2.963 2.963 0 0 0-1.192-1.075 3.572 3.572 0 0 0-1.602-.357c-.251 0-.487.03-.708.087-.219.06-.41.153-.57.28a1.318 1.318 0 0 0-.384.482 1.62 1.62 0 0 0-.142.703c0 .396.093.756.278 1.075.185.324.427.626.728.91.298.282.643.556 1.027.822l1.175.816c.397.276.788.569 1.172.882.384.313.728.656 1.03 1.035.3.377.542.796.724 1.26.185.459.278.978.278 1.557 0 .387-.066.743-.199 1.076-.132.33-.31.632-.54.902-.224.27-.49.506-.793.716a5.29 5.29 0 0 1-.974.523c-.347.14-.702.243-1.07.316a6.132 6.132 0 0 1-2.221.01 6.962 6.962 0 0 1-.84-.22 17.514 17.514 0 0 1-.6-.22 1.082 1.082 0 0 0-.406-.096.298.298 0 0 0-.087.01l-.622.096zM20.812 91.36a7.992 7.992 0 0 0 .629 3.1c.208.489.463.945.765 1.371.304.426.652.796 1.04 1.112a4.62 4.62 0 0 0 1.293.743c.477.176.99.266 1.546.266.785 0 1.463-.166 2.04-.502a4.421 4.421 0 0 0 1.43-1.333 5.983 5.983 0 0 0 .843-1.904 9.04 9.04 0 0 0 .275-2.231 8.43 8.43 0 0 0-.159-1.641 7.708 7.708 0 0 0-.466-1.532 6.43 6.43 0 0 0-.755-1.339 5.33 5.33 0 0 0-1.04-1.058 4.741 4.741 0 0 0-1.297-.697 4.674 4.674 0 0 0-1.55-.25c-.496 0-.956.08-1.377.238-.42.152-.797.366-1.138.636a4.53 4.53 0 0 0-.897.968 6.146 6.146 0 0 0-.65 1.212 7.176 7.176 0 0 0-.396 1.382 7.73 7.73 0 0 0-.136 1.459zm4.83 7.578c-.229 0-.51-.02-.851-.057a8.719 8.719 0 0 1-1.116-.216c-.404-.104-.824-.24-1.264-.41a7.731 7.731 0 0 1-2.503-1.585 5.883 5.883 0 0 1-1.003-1.258 6.576 6.576 0 0 1-.688-1.635c-.173-.61-.259-1.296-.259-2.058a6.723 6.723 0 0 1 1.07-3.666 6.986 6.986 0 0 1 1.244-1.455 7.573 7.573 0 0 1 1.636-1.112 8.858 8.858 0 0 1 1.956-.713 9.47 9.47 0 0 1 2.221-.253 7.766 7.766 0 0 1 3.724.952c.55.304 1.053.663 1.51 1.086.457.423.847.896 1.178 1.415a6.74 6.74 0 0 1 .765 1.685c.182.6.271 1.225.271 1.878a6.48 6.48 0 0 1-.261 1.818 7.261 7.261 0 0 1-.755 1.725 7.862 7.862 0 0 1-1.198 1.528 7.862 7.862 0 0 1-3.486 2.038 8 8 0 0 1-2.191.293zM.076 98.684c-.033 0-.053-.01-.063-.03A.11.11 0 0 1 0 98.607v-.53a.1.1 0 0 1 .013-.046c.01-.02.03-.03.063-.03.202 0 .404-.017.606-.043.205-.03.39-.093.56-.19.168-.1.304-.24.41-.42.109-.183.162-.43.162-.742V86.83c0-.22-.036-.406-.11-.556a.912.912 0 0 0-.297-.363 1.252 1.252 0 0 0-.467-.21 3.162 3.162 0 0 0-.602-.09c-.05 0-.077-.026-.077-.076v-.526c0-.053.024-.08.067-.08H6.07c.033 0 .053.01.063.03.01.02.013.037.013.05v.526c0 .036-.026.056-.076.056-.195 0-.38.02-.563.054-.182.036-.34.103-.477.203a1.011 1.011 0 0 0-.327.413c-.086.18-.126.416-.126.706v4.019c0 .066.01.11.027.13.02.016.063.026.125.026h6.77c.066 0 .11-.01.13-.027.016-.02.026-.063.026-.13v-4.172c0-.23-.07-.416-.212-.566a1.488 1.488 0 0 0-.54-.356 3.233 3.233 0 0 0-.701-.196 6.55 6.55 0 0 0-.7-.083c-.052 0-.079-.027-.079-.077v-.526c0-.053.024-.08.07-.08h6.468c.033 0 .053.01.063.03.01.02.017.037.017.05v.526c0 .036-.027.056-.08.056-.195 0-.384.02-.566.054a1.319 1.319 0 0 0-.496.203.998.998 0 0 0-.348.413c-.09.18-.132.416-.132.706v9.659c0 .17.026.32.073.453.05.133.125.266.228.396.103.143.275.263.51.36.235.096.569.153 1.003.166.053 0 .08.026.08.077v.529c0 .05-.027.077-.08.077H9.193c-.033 0-.053-.01-.063-.03a.106.106 0 0 1-.013-.047v-.53c0-.013.003-.026.013-.046.01-.02.03-.03.063-.03.195 0 .43-.013.708-.04.278-.027.55-.083.811-.17.262-.086.483-.216.669-.38.182-.166.275-.392.275-.679v-4.215c0-.063-.01-.106-.027-.126-.02-.02-.063-.027-.129-.027H4.73c-.062 0-.106.006-.125.027-.017.02-.027.063-.027.126v4.312c0 .223.046.406.146.556.096.15.222.27.38.363.16.09.341.156.55.193.205.04.42.06.639.06.04 0 .063.01.07.03.006.02.01.033.01.047v.529c0 .01-.004.027-.01.047-.007.02-.027.03-.06.03H.076z"/>
        <g transform="translate(112.178 84.238)">
            <mask id="b" fill="#fff">
                <use xlink:href="#a"/>
            </mask>
            <path fill="#480000" d="M38.11 7.297c.006.05.02.097.042.14.024.043.07.066.14.073.06.007.145.017.264.034.116.016.279.026.484.026.57 0 1.04-.09 1.406-.267a2.19 2.19 0 0 0 .871-.705 2.67 2.67 0 0 0 .444-1.019c.08-.383.119-.782.119-1.199 0-.436-.066-.849-.202-1.241a3.109 3.109 0 0 0-.57-1.013 2.683 2.683 0 0 0-.87-.682 2.48 2.48 0 0 0-1.122-.254c-.09 0-.159 0-.212.004l-.149.01-.166.01c-.062.003-.148.006-.258.013-.04 0-.09.01-.149.027-.063.013-.092.06-.092.13v5.62l.02.293zm-4.714 6.643c0-.007.003-.024.01-.047.006-.02.03-.033.066-.033.04 0 .103-.007.185-.02.083-.013.172-.023.262-.037.09-.013.175-.03.251-.046.08-.014.133-.027.166-.034.367-.083.625-.223.771-.413a1.16 1.16 0 0 0 .218-.719V2.682c0-.326-.069-.582-.205-.772a1.378 1.378 0 0 0-.47-.423 1.561 1.561 0 0 0-.512-.176 2.833 2.833 0 0 0-.335-.034h-.368c-.033 0-.053-.01-.063-.03a.125.125 0 0 1-.016-.05V.771a.13.13 0 0 1 .01-.047c.006-.013.03-.026.07-.033h.042c.024 0 .07 0 .14-.003.072-.003.175-.007.31-.01.136-.003.328-.01.573-.017.355-.006.735-.016 1.14-.027l1.227-.04c.414-.013.821-.026 1.225-.033.404-.01.784-.016 1.142-.016h.98c.51 0 1.03.09 1.56.263a4.71 4.71 0 0 1 1.439.775c.43.344.784.766 1.06 1.273.274.509.41 1.095.41 1.757 0 .43-.06.81-.175 1.146a2.954 2.954 0 0 1-.48.889 3.28 3.28 0 0 1-.726.676c-.281.196-.589.37-.916.52l2.936 4.68c.255.403.546.77.884 1.096.337.33.728.56 1.175.69.05.013.08.03.09.052.009.024.016.05.016.084 0 .096-.027.163-.08.196a.494.494 0 0 1-.241.047 8.915 8.915 0 0 1-1.97-.23 6.246 6.246 0 0 1-.993-.316 2.725 2.725 0 0 1-.791-.486 4.845 4.845 0 0 1-.63-.693c-.214-.28-.43-.582-.645-.902a27.01 27.01 0 0 1-.639-1.006l-.612-1.019a39.6 39.6 0 0 0-.566-.929c-.182-.286-.348-.529-.497-.729l-1.513-.106h-.076c-.046 0-.08.003-.095.016a.111.111 0 0 0-.04.04.198.198 0 0 0-.01.077v4.159c0 .173.023.326.066.456.046.13.122.243.228.336.106.096.245.173.417.23.172.06.381.103.626.136l.169.03.245.044c.086.016.172.03.255.043.086.013.155.02.215.02.04 0 .06.01.066.03a.16.16 0 0 1 .01.05v.43a.11.11 0 0 1-.013.046c-.01.02-.03.03-.063.03h-6.84c-.03 0-.052-.047-.062-.137a2.395 2.395 0 0 1-.013-.253v-.116zM18.8 2.4a.969.969 0 0 0-.128-.503 1.13 1.13 0 0 0-.355-.367 1.738 1.738 0 0 0-.516-.223c-.192-.053-.4-.08-.62-.08-.052 0-.079-.026-.079-.076V.77c0-.053.023-.08.07-.08h6.13c.03 0 .054.01.063.03.01.02.014.037.014.05v.38c0 .013-.004.03-.014.046-.01.02-.033.03-.063.03-.195 0-.393.013-.599.04-.202.027-.39.083-.562.177a1.12 1.12 0 0 0-.417.392c-.107.174-.16.407-.16.7v6.839c0 1.298.332 2.304.99 3.017.66.712 1.646 1.068 2.96 1.068.543 0 1.062-.076 1.559-.23.5-.153.937-.386 1.32-.706.382-.319.686-.725.911-1.218.225-.496.341-1.085.341-1.768V3.48c0-.22-.01-.45-.026-.682a2.029 2.029 0 0 0-.16-.663c-.089-.21-.231-.39-.426-.543-.195-.153-.47-.26-.825-.316a3.163 3.163 0 0 0-.403-.043c-.106-.004-.176-.007-.209-.007-.05 0-.076-.026-.076-.076V.77c0-.053.027-.08.076-.08h5.065c.03 0 .053.01.063.03.01.02.013.037.013.05v.38a.08.08 0 0 1-.02.046.062.062 0 0 1-.056.03c-.235 0-.44.02-.616.053a2.113 2.113 0 0 0-.404.114.944.944 0 0 0-.3.21 1.66 1.66 0 0 0-.23.302c-.06.107-.105.217-.139.33-.032.117-.049.213-.049.3v6.243c0 .915-.12 1.74-.358 2.474a4.852 4.852 0 0 1-1.082 1.86c-.48.51-1.086.907-1.817 1.183-.732.276-1.586.413-2.563.413-.463 0-.943-.037-1.44-.107a8.429 8.429 0 0 1-1.443-.343 6.738 6.738 0 0 1-1.324-.602 4.735 4.735 0 0 1-1.086-.89 4.007 4.007 0 0 1-.738-1.188 4.087 4.087 0 0 1-.272-1.522V2.4zM2.964 7.12a7.97 7.97 0 0 0 .629 3.1c.209.49.463.946.765 1.372.304.426.652.796 1.04 1.112.387.317.82.563 1.293.743.477.177.99.266 1.546.266.785 0 1.463-.166 2.04-.502a4.42 4.42 0 0 0 1.43-1.332 5.986 5.986 0 0 0 .844-1.905 9.055 9.055 0 0 0 .275-2.23c0-.56-.054-1.106-.16-1.642A7.668 7.668 0 0 0 12.2 4.57a6.415 6.415 0 0 0-.755-1.339 5.334 5.334 0 0 0-1.04-1.058 4.74 4.74 0 0 0-1.297-.696 4.673 4.673 0 0 0-1.55-.25c-.496 0-.956.08-1.376.237a4.06 4.06 0 0 0-1.139.636 4.54 4.54 0 0 0-.897.969 6.152 6.152 0 0 0-.649 1.212A7.15 7.15 0 0 0 3.1 5.662a7.702 7.702 0 0 0-.136 1.459zm4.83 7.579c-.229 0-.51-.02-.85-.057a8.676 8.676 0 0 1-1.117-.216c-.404-.103-.824-.24-1.264-.41a7.643 7.643 0 0 1-2.502-1.585c-.381-.36-.716-.779-1.004-1.258A6.577 6.577 0 0 1 .37 9.538C.197 8.928.11 8.243.11 7.48A6.717 6.717 0 0 1 1.18 3.814 6.998 6.998 0 0 1 2.424 2.36 7.58 7.58 0 0 1 4.06 1.247 8.866 8.866 0 0 1 6.016.535 9.469 9.469 0 0 1 8.237.282a7.766 7.766 0 0 1 3.724.952 7.64 7.64 0 0 1 1.51 1.085c.457.423.847.896 1.178 1.415.328.52.586 1.082.765 1.685.182.6.271 1.225.271 1.878 0 .61-.085 1.216-.26 1.818a7.254 7.254 0 0 1-.756 1.725 7.864 7.864 0 0 1-1.198 1.528 7.855 7.855 0 0 1-3.486 2.038 8.001 8.001 0 0 1-2.191.293z" mask="url(#b)"/>
        </g>
        <path fill="#480000" d="M106.144 122.045c.083 0 .182-.013.301-.036.116-.027.232-.07.348-.127.116-.06.222-.133.321-.22a.863.863 0 0 0 .222-.32l4.916-12.249c.052-.123.112-.263.182-.42.066-.156.146-.306.231-.445.087-.14.186-.264.295-.37a.741.741 0 0 1 .37-.2c.143-.027.256-.053.345-.077.086-.026.152-.053.202-.08.05-.026.08-.053.093-.086a.314.314 0 0 0 .02-.117c0-.033-.007-.086-.017-.163-.007-.073-.04-.11-.09-.11h-3.87c-.052 0-.102.03-.145.094a.283.283 0 0 0-.07.17c0 .09.034.16.093.21a.654.654 0 0 0 .215.106c.08.023.163.04.252.05.086.01.16.023.219.043a1.4 1.4 0 0 1 .532.33c.15.15.215.34.203.566 0 .046-.004.093-.01.143-.007.05-.024.126-.053.233-.03.107-.077.26-.146.46-.066.196-.169.472-.301.822-.133.353-.298.796-.503 1.328-.202.533-.454 1.182-.752 1.952a.45.45 0 0 1-.146.286c-.026.03-.05.043-.076.043-.046 0-.086-.03-.122-.09a1.155 1.155 0 0 1-.073-.143l-2.403-5.18a.444.444 0 0 0-.047-.11.48.48 0 0 1-.042-.124c0-.17.036-.296.112-.38a.636.636 0 0 1 .275-.186c.112-.04.228-.06.354-.067a5.16 5.16 0 0 0 .354-.03.9.9 0 0 0 .278-.073c.073-.036.11-.1.11-.19 0-.02-.004-.07-.01-.146-.007-.08-.027-.116-.067-.116h-5.12a.19.19 0 0 0-.176.096.405.405 0 0 0-.057.196c0 .07.02.127.063.17.043.04.093.077.156.103.06.024.122.047.189.063.063.017.119.03.165.044.295.096.55.256.755.483.208.223.364.486.477.785l3.714 7.792-1.271 2.976a.9.9 0 0 1-.219.327c-.08.07-.155.13-.228.18-.103.08-.229.14-.378.186-.149.047-.291.1-.427.167a1.155 1.155 0 0 0-.344.243c-.093.097-.14.236-.14.42 0 .116.028.222.08.316.057.096.13.176.219.25.093.07.192.126.301.166.11.04.225.056.341.056zm-7.246-15.206l.083-.04c.03-.014.05-.02.063-.02.112 0 .165.08.165.236v1.659c0 .02.003.043.007.073.003.03.02.043.052.043.034 0 .057-.01.077-.033.02-.024.04-.047.06-.063.115-.157.244-.33.39-.523.146-.193.301-.373.467-.543.165-.166.334-.31.51-.423a.94.94 0 0 1 .513-.17c.116 0 .268.03.457.097.185.063.37.14.546.23.178.086.33.176.457.273.125.093.188.17.188.23 0 .056-.03.166-.086.326-.06.16-.132.32-.219.483a2.834 2.834 0 0 1-.28.432c-.1.127-.193.19-.279.19h-.016a3.122 3.122 0 0 1-.355-.14l-.364-.166a2.619 2.619 0 0 0-.374-.136 1.362 1.362 0 0 0-.384-.054c-.192 0-.374.04-.543.12a1.485 1.485 0 0 0-.43.313c-.12.126-.215.27-.288.426-.07.156-.106.303-.106.446v4.12c0 .185.04.345.122.472.08.126.183.23.312.313.125.08.264.143.417.183.149.043.298.076.44.103.143.027.272.047.387.064a.983.983 0 0 1 .262.063c.066.026.096.116.096.273 0 .19-.03.29-.096.303h-5.595c-.066-.013-.099-.114-.099-.303 0-.157.033-.247.1-.273.082-.04.201-.07.357-.093a1.76 1.76 0 0 0 .467-.137 1.04 1.04 0 0 0 .407-.32c.115-.146.172-.362.172-.649v-4.691c0-.157-.04-.28-.126-.367a.749.749 0 0 0-.318-.2 2.898 2.898 0 0 0-.417-.112 5.014 5.014 0 0 1-.427-.104.224.224 0 0 1-.092-.053c-.024-.023-.033-.07-.033-.14 0-.033.01-.067.03-.1a.294.294 0 0 1 .115-.096l3.208-1.522zm-4.284 8.866c0 .04-.006.094-.02.167-.013.07-.04.114-.079.127h-5.061c-.04-.013-.067-.057-.08-.127a1.377 1.377 0 0 1-.017-.167c0-.033.01-.083.027-.156.02-.07.043-.113.07-.126.082-.04.202-.07.357-.093a1.76 1.76 0 0 0 .467-.137c.155-.066.291-.173.407-.32.116-.146.175-.362.175-.649V102.85a.51.51 0 0 0-.125-.366.852.852 0 0 0-.321-.2 2.918 2.918 0 0 0-.417-.113 4.879 4.879 0 0 1-.428-.104c-.082-.03-.125-.123-.125-.272 0-.03.01-.077.03-.13.019-.057.056-.1.115-.134l3.211-1.521a.415.415 0 0 1 .086-.037.289.289 0 0 1 .106-.02c.053 0 .086.017.1.053.01.034.016.097.016.18v14.038c0 .287.06.503.176.65.115.146.251.253.407.319.155.07.31.113.466.137.156.023.275.053.358.093.027.013.05.056.07.126.02.073.03.123.03.156zm-8.915-5.793h-3.17c-.054 0-.093-.023-.127-.07-.032-.043-.05-.123-.05-.233 0-.143.04-.316.123-.516a2.07 2.07 0 0 1 .365-.586c.159-.19.357-.35.589-.483.235-.133.506-.2.814-.2.262 0 .493.05.705.147.209.097.387.233.536.403.15.173.265.373.345.596.083.223.122.462.122.716 0 .15-.083.226-.252.226zm-5.693 2.135c0 .522.092 1.035.278 1.538.182.502.454.952.808 1.352.357.396.791.715 1.31.958.517.244 1.11.367 1.775.367.328 0 .678-.057 1.046-.177.37-.116.728-.27 1.082-.463.351-.19.686-.409.993-.652.312-.243.573-.493.789-.746.023-.027.036-.05.036-.07 0-.02-.01-.036-.03-.056a1.701 1.701 0 0 0-.136-.173 2.158 2.158 0 0 0-.172-.18c-.033-.034-.06-.047-.08-.047-.013 0-.036.007-.075.017-.17.136-.348.273-.533.409a4.552 4.552 0 0 1-.603.373c-.212.11-.437.2-.669.266a2.51 2.51 0 0 1-.728.104c-.4 0-.78-.08-1.145-.24a2.771 2.771 0 0 1-.96-.702 3.473 3.473 0 0 1-.662-1.13c-.166-.445-.248-.955-.248-1.528 0-.17.01-.313.033-.429.023-.117.066-.177.132-.177h5.72c.086 0 .146-.053.182-.16.033-.106.053-.206.053-.296 0-.28-.06-.573-.175-.872a4.795 4.795 0 0 0-.967-1.558c-.189-.2-.357-.34-.506-.42-.13-.077-.258-.15-.384-.22a3.093 3.093 0 0 0-.887-.293 3.933 3.933 0 0 0-.593-.043c-.738 0-1.394.13-1.973.39-.58.263-1.07.625-1.47 1.095a4.88 4.88 0 0 0-.92 1.662 6.566 6.566 0 0 0-.321 2.1zm-11.63 4.215c-.049 0-.095-.037-.128-.113a1.938 1.938 0 0 1-.083-.19l-2.572-6.993c-.11-.299-.268-.562-.473-.785a1.738 1.738 0 0 0-.758-.483c-.043-.013-.1-.027-.166-.044a1.866 1.866 0 0 1-.189-.063.563.563 0 0 1-.155-.103.245.245 0 0 1-.063-.17c0-.066.02-.13.06-.196a.186.186 0 0 1 .175-.096h5.091c.04 0 .06.036.066.116.007.076.01.127.01.146 0 .09-.033.154-.106.19a.716.716 0 0 1-.261.067c-.103.01-.215.02-.341.03-.123.01-.235.033-.338.07a.554.554 0 0 0-.261.183c-.073.09-.106.216-.106.386l.006.123c.007.06.01.097.01.11l1.874 5.124c.013.03.033.077.063.14.03.064.07.093.119.093.026 0 .056-.016.083-.043a.326.326 0 0 0 .073-.103c.02-.04.036-.076.05-.113a.748.748 0 0 1 .029-.074l1.688-4.505a2.331 2.331 0 0 0-.477-.785 1.724 1.724 0 0 0-.754-.483l-.166-.044a1.452 1.452 0 0 1-.188-.063.48.48 0 0 1-.156-.103.23.23 0 0 1-.063-.17.37.37 0 0 1 .057-.196.19.19 0 0 1 .175-.096h5.101c.04 0 .063.036.066.116.007.076.01.127.01.146 0 .09-.033.154-.106.19a.713.713 0 0 1-.261.067l-.338.03c-.126.01-.238.033-.34.07a.553.553 0 0 0-.262.183c-.073.09-.106.216-.106.386 0 .02.003.06.01.123.006.06.01.097.01.11l1.588 4.352c.014.033.034.08.063.143.03.06.07.09.123.09.026 0 .053-.013.083-.043a.628.628 0 0 0 .129-.213.693.693 0 0 1 .03-.073l1.443-3.816a.823.823 0 0 0-.063-.649 1.092 1.092 0 0 0-.58-.483 1.022 1.022 0 0 0-.307-.057.837.837 0 0 1-.38-.097.33.33 0 0 1-.19-.313c0-.053.02-.11.067-.17.046-.063.092-.092.145-.092h3.89c.05.013.082.053.093.12.006.07.013.119.013.152a.32.32 0 0 1-.02.117c-.014.033-.043.063-.093.093a.889.889 0 0 1-.202.077c-.089.023-.202.046-.344.073a.7.7 0 0 0-.374.2 1.974 1.974 0 0 0-.291.376c-.086.143-.163.29-.229.443-.063.153-.126.293-.182.416a632.3 632.3 0 0 1-1.102 2.877c-.301.78-.55 1.425-.748 1.931-.196.506-.348.902-.454 1.182-.106.28-.185.483-.238.613a4.71 4.71 0 0 0-.093.24l-.013.043-.08.176c-.03.07-.072.107-.125.107h-.99c-.05 0-.093-.037-.13-.113a2.023 2.023 0 0 1-.082-.19l-2.105-5.717-2.202 5.737c-.02.046-.046.103-.082.176-.033.07-.08.107-.13.107h-1.446zm-7.573-6.35c.169 0 .252-.076.252-.226 0-.254-.04-.493-.123-.716a1.87 1.87 0 0 0-.344-.596 1.604 1.604 0 0 0-.537-.403 1.664 1.664 0 0 0-.705-.147c-.307 0-.579.067-.814.2a2.16 2.16 0 0 0-.59.483c-.161.19-.284.383-.363.586-.083.2-.123.373-.123.516 0 .11.017.19.05.233.033.047.073.07.126.07h3.17zm-5.694 2.135c0-.76.106-1.462.321-2.101a4.87 4.87 0 0 1 .92-1.662c.401-.47.891-.832 1.47-1.096.58-.26 1.235-.389 1.973-.389a3.097 3.097 0 0 1 1.073.163c.145.047.281.107.407.173.126.07.255.143.384.22.15.08.318.22.506.42a4.776 4.776 0 0 1 .967 1.558c.116.3.175.592.175.872 0 .09-.02.19-.052.297-.037.106-.097.16-.182.16h-5.72c-.067 0-.11.06-.133.176-.024.116-.033.26-.033.43 0 .572.082 1.082.248 1.528.165.442.384.822.662 1.129.278.309.6.545.96.702.364.16.745.24 1.145.24.252 0 .497-.034.729-.104.232-.066.456-.156.668-.266.216-.11.414-.236.603-.373.185-.136.364-.273.533-.41.04-.01.063-.016.076-.016.02 0 .046.013.08.047a2.259 2.259 0 0 1 .307.353c.02.02.03.036.03.056 0 .02-.013.043-.036.07a5.369 5.369 0 0 1-.788.746 6.865 6.865 0 0 1-.993.652 6.016 6.016 0 0 1-1.083.463c-.367.12-.718.177-1.046.177-.665 0-1.258-.123-1.774-.367a4.05 4.05 0 0 1-1.311-.958c-.354-.4-.626-.85-.808-1.352a4.412 4.412 0 0 1-.278-1.538zm-4.518-8.095c0-.246-.043-.446-.133-.599a.88.88 0 0 0-.374-.356 1.683 1.683 0 0 0-.59-.173 6.93 6.93 0 0 0-.787-.044c-.05 0-.076-.026-.076-.076v-.38c0-.053.026-.08.076-.08h6.14c.034 0 .054.01.063.03a.11.11 0 0 1 .014.05v.38c0 .013-.004.03-.014.046-.01.02-.03.03-.062.03-.202 0-.39.017-.573.044-.182.03-.341.092-.477.193a1.001 1.001 0 0 0-.324.42c-.08.179-.12.425-.12.738v11.92c0 .483-.046.97-.142 1.459a6.958 6.958 0 0 1-.427 1.422c-.188.452-.43.878-.721 1.275a5.035 5.035 0 0 1-1.02 1.039c-.387.296-.824.529-1.314.699-.487.17-1.03.253-1.622.253-.808 0-1.397-.097-1.765-.287-.37-.193-.556-.44-.562-.739 0-.136.03-.263.089-.383.063-.123.14-.226.235-.32.093-.09.199-.159.314-.212a.82.82 0 0 1 .348-.077c.196 0 .365.02.507.067.142.046.264.103.374.17.106.07.198.143.281.226.08.08.162.156.252.223.086.07.175.126.271.17.093.046.209.07.344.07.292 0 .537-.06.742-.177.202-.116.37-.276.503-.483a2.47 2.47 0 0 0 .311-.715c.073-.274.13-.566.166-.873.033-.31.056-.63.063-.959.006-.326.01-.649.01-.969v-13.022zM122.704 58.371l6.178 3.126c-.133.148-3.006 1.397-3.439 1.588-.578.255-1.142.534-1.724.78-.32.136-1.502.73-1.729.765l.714-6.259zm7.997 4.048l6.163 3.124c-.45.537-4.358 3.972-4.568 4.311-.157-.591-.268-1.237-.417-1.852-.143-.592-.234-1.291-.4-1.859-.166-.57-.267-1.266-.401-1.858-.094-.413-.387-1.518-.377-1.866zm-8.997-3.802c-.159.036-5.333 3.18-5.727 3.475l5.052 2.56c.019-.566.436-3.592.526-4.538l.149-1.497zm7.934 3.646l.854 3.784c.097.524.839 3.575.792 3.804l-8.689-4.404c.073-.082 6.83-3.159 7.043-3.184zm7.634 4.246c.067.151.63 6.182.63 6.697L132.8 70.62c.332-.267.788-.704 1.1-1.011l3.064-2.86c.19-.186.106-.16.308-.24zm-15.79 14.686l10.614-9.909-.209-.11 5.506 2.792c-.231.147-.711.315-.988.455l-2.97 1.346c-1.334.563-2.657 1.267-3.99 1.83-.665.282-1.327.6-1.979.905l-5.983 2.69zm.326-15.118l-1.756 15.15 11.128-10.41-9.372-4.74zm17.092 8.045c.062-.208-.004-.456-.025-.73-.062-.778-.137-1.566-.214-2.344-.153-1.562-.276-3.127-.427-4.688-.152-1.571-.034-1.161-1.519-1.912-1.858-.939-13.998-7.179-14.372-7.222-.36-.041-3.494 2.005-4.038 2.33l-2.984 1.822c-.365.235-.816.35-.756.886l.967 4.509c.308 1.503.637 3.01.965 4.51a752.58 752.58 0 0 1 1.92 9.023c.153.745.35 1.51.478 2.254.173 1.004.898.492 1.903.016 1.371-.648 2.789-1.299 4.175-1.912 2.791-1.235 5.578-2.536 8.355-3.808l5.203-2.364a.725.725 0 0 0 .292-.216l.077-.154zm-23.227-11.166l5.252 2.663-.21 1.765c-.082.555-.161 1.194-.208 1.763-.096 1.173-.316 2.353-.412 3.526-.047.57-.126 1.209-.207 1.764-.087.589-.113 1.174-.201 1.761l-.4 3.565-3.614-16.807z"/>
    </g>
</svg>
