<?xml version="1.0" encoding="UTF-8"?>
<svg width="160px" height="123px" viewBox="0 0 160 123" version="1.1" xmlns="http://www.w3.org/2000/svg" xmlns:xlink="http://www.w3.org/1999/xlink">
    <!-- Generator: Sketch 55 (78076) - https://sketchapp.com -->
    <title>Group 25</title>
    <desc>Created with Sketch.</desc>
    <defs>
        <polygon id="path-1" points="0.110567427 0.281553688 47.487758 0.281553688 47.487758 14.7089338 0.110567427 14.7089338"></polygon>
    </defs>
    <g id="Page-1" stroke="none" stroke-width="1" fill="none" fill-rule="evenodd">
        <g id="Hosseinpour-details" transform="translate(-640.000000, -45.000000)">
            <g id="Group-25" transform="translate(640.000000, 45.000000)">
                <path d="M102.92937,4.02810026 C102.073535,4.90837902 101.474274,4.62850458 102.120691,3.40913583 C102.331867,3.01083031 102.636184,2.52826786 102.926442,2.09077992 C103.845835,0.70584334 104.640749,-0.134074587 106.117227,0.0179414247 C107.575838,0.168189809 108.957126,1.14392049 110.515028,1.26028934 C111.68221,1.34719772 112.342979,1.27413576 113.322416,0.620702589 C114.277835,-0.0168219269 114.434534,0.0880573373 114.183524,1.02018653 C114.074274,1.42644637 113.855775,2.11169685 113.611502,2.6950141 C113.110068,3.89346592 112.709096,3.90554471 111.752212,4.60081174 C111.374379,4.8753833 111.125712,5.08720406 110.632772,5.45280846 C109.226881,6.4951198 107.18834,8.08510123 104.227183,11.2173381 C97.8010921,18.0135734 89.033022,23.5350542 79.8408415,25.4275946 C74.4638963,26.534719 68.4581079,26.5005448 64.5429959,26.0371317 C62.4669643,25.7914314 58.690684,24.9482728 57.6910373,22.8194594 C57.3931642,22.184881 57.1705649,21.7948244 56.4222211,22.7063312 C55.9272305,23.3096816 55.4214029,24.0868487 54.9404712,24.8389745 C53.8046288,26.6145568 53.0791308,27.2305752 50.4135039,27.0066757 C38.1289502,25.9743809 23.6995348,41.5050555 20.8028147,52.4157396 C18.4523416,61.2691993 21.5403214,70.2923513 32.3952602,72.6488941 C44.3324418,75.2411206 57.1339532,67.9166592 68.3661393,62.3654233 C77.9282447,57.6396697 94.2837299,48.4379873 104.492252,51.3351297 C113.984649,54.0292895 112.475952,62.7021565 108.441926,69.7620629 C106.566819,73.0436644 102.624468,77.5658461 99.583937,80.2894663 L94.1451911,80.2835742 C98.4164621,77.0464581 106.809335,71.5232096 109.281066,65.7430659 C112.345322,58.5765126 103.642274,53.4698352 97.4680718,53.3263627 C88.0509489,53.1080606 77.0882251,59.1645435 69.0837292,63.594514 C57.5419543,69.9830164 55.40998,71.2162316 55.40998,71.2162316 C55.40998,71.2162316 51.0956536,73.5615794 45.9714758,75.2181415 C39.5673519,77.2880339 32.7991609,77.5631947 26.5722377,74.643957 C16.1337939,69.7496895 14.5340077,57.3288618 20.4785812,44.7745782 C26.3109764,32.4562729 38.3128875,22.7458083 51.8498553,21.1735031 C53.1131065,21.0264954 53.1710994,22.615593 54.4741842,22.4526766 C55.2160843,22.3598761 56.4547323,20.8562139 56.9608529,20.2773157 C57.9156868,19.184627 58.7633216,18.1894524 59.6109564,18.3974433 C60.7096012,18.6675957 61.5138877,19.5163518 63.7750282,19.9184872 C68.2311152,20.7106792 74.5174958,21.277204 79.0892759,20.776376 C87.9018659,19.8106619 96.0873702,15.5309398 102.959831,9.91489087 C105.145991,8.12811351 107.096371,6.25619541 109.134912,4.31239377 C109.139306,4.30856391 108.491132,4.0622744 107.733708,3.6969646 C107.020219,3.35316095 105.64889,2.88768556 104.624933,2.9404198 C103.776712,2.98431589 103.472689,3.46923519 102.92937,4.02810026" id="Fill-1" fill="#480000"></path>
                <path d="M46.5706195,4.8552618 C46.5706195,4.8552618 47.1013431,3.60967324 47.0571161,4.8552618 C46.9440591,8.04317899 47.7137841,10.3555311 45.4983351,13.6282944 C44.7461837,14.7392486 44.3323247,15.1593549 44.0625694,15.3676404 C43.9029423,15.4913744 43.752102,15.5547144 43.6771211,15.784506 C42.8781067,18.2185298 42.1142396,20.9065029 40.5173823,22.0015485 C39.9960313,22.3586093 38.7934092,22.767226 37.5972307,23.130179 C33.9392794,24.2402494 35.0411461,23.2409503 36.6552841,22.195693 C37.8163153,21.4441564 39.0482268,20.7412297 40.0522669,19.7778724 C40.8360508,19.025452 41.2832997,18.2971893 41.7738969,17.3544543 C41.9373317,17.0395219 41.9434825,16.9090121 41.5328453,17.0742853 C39.7681599,17.7845772 38.2260738,16.752577 38.8326569,14.7734228 C39.2529596,13.4014488 40.0815563,12.0103255 40.8222848,11.0820262 C41.9707216,9.64229316 43.8915194,11.0348895 44.0060409,12.5385517 C44.4535827,12.1493789 44.9233845,11.7934965 44.9456444,10.9426782 C44.9679043,10.0921545 44.8560189,8.86483142 44.8560189,8.86483142 L46.5706195,4.8552618 Z" id="Fill-3" fill="#480000"></path>
                <path d="M50.5608588,8.79615907 C49.9085842,10.0826977 50.615337,10.3719995 51.3821331,10.9423541 C52.7218296,11.9398856 52.9956853,11.9690514 53.9247446,10.0986063 C54.6868544,8.56371599 54.9604172,7.99542357 53.7050742,6.79815017 C52.0745342,5.24293209 52.2080938,5.54696412 51.2131334,7.50903125 L50.5608588,8.79615907 Z" id="Fill-5" fill="#480000"></path>
                <path d="M34.3042545,14.433066 C34.8727614,13.135627 35.2344853,13.5866668 35.0979968,14.684953 C34.9492067,15.8866455 34.4946355,17.419179 33.9656692,18.8633311 C33.4410963,20.2954044 32.5609503,22.800428 31.513269,23.9158013 C31.0132992,24.4475627 30.3270489,24.8317272 29.4401664,25.1074772 C27.0082688,25.8634328 26.1237293,25.9079181 26.1237293,25.9079181 C25.0780983,25.9957103 25.2919108,25.4813305 26.0885821,24.8544118 C27.0864714,24.0684065 28.2800138,23.6786445 29.2869829,22.9403652 C30.5341249,22.0253231 31.3006281,20.8371824 32.3512383,18.8550822 C33.1704624,17.3087022 33.8587629,15.5982275 34.3042545,14.433066" id="Fill-7" fill="#480000"></path>
                <path d="M40.6051919,37.5757951 C40.7905937,37.8530181 41.1165846,38.0748555 41.451948,38.3562029 C42.7318941,39.4306262 43.0036996,39.4754061 44.0390794,37.6624089 C44.8887644,36.1749499 45.1948385,35.6237446 44.0106687,34.3548822 C42.472976,32.7071583 42.5883761,33.0182608 41.4821161,34.9187556 L40.7563251,36.165228 C40.6368244,35.851474 40.389622,35.526525 39.9778133,35.1335224 C38.3472732,33.5788935 38.4808328,33.8826309 37.4858724,35.8446981 L36.8335979,37.1315313 C36.1813233,38.4180699 36.888369,38.7073717 37.6548722,39.2780209 C38.9945686,40.275847 39.2687173,40.3047182 40.1971908,38.4342732 C40.3585753,38.1099134 40.497407,37.8288606 40.6051919,37.5757951" id="Fill-9" fill="#480000"></path>
                <path d="M39.2754538,42.0880782 C38.6029696,43.2435177 39.2417711,43.5493174 39.920699,44.1193774 C41.107212,45.1154358 41.3593936,45.1569751 42.3194996,43.4762554 C43.107384,42.0966217 43.3909053,41.5857772 42.2931391,40.4094207 C40.8673319,38.8816009 40.974531,39.1703135 39.9485239,40.932344 L39.2754538,42.0880782 Z" id="Fill-11" fill="#480000"></path>
                <path d="M43.9567469,66.0295984 C44.1421487,66.3068214 44.4684325,66.5286587 44.803503,66.8103008 C46.0834491,67.8847241 46.3552546,67.929504 47.3906344,66.1165068 C48.2403194,64.6287532 48.5463935,64.0775479 47.3622237,62.8086855 C45.8242381,61.1609616 45.9399311,61.4723587 44.8336711,63.3728535 L44.1078801,64.6193259 C43.9883794,64.3052773 43.741177,63.9806229 43.3293683,63.5876203 C41.6988282,62.0326968 41.8323878,62.3367288 40.8374274,64.298796 L40.1851528,65.5856292 C39.5328782,66.8721678 40.2396311,67.1614696 41.0061343,67.7318242 C42.3461236,68.7296503 42.6199794,68.7588161 43.5490387,66.8880765 C43.7098374,66.5637167 43.848962,66.2826638 43.9567469,66.0295984" id="Fill-13" fill="#480000"></path>
                <path d="M103.937042,91.8943864 C103.943486,91.9480044 103.960181,91.994552 103.98332,92.0343236 C104.003236,92.0776305 104.053028,92.1009043 104.122444,92.1076802 C104.148805,92.1076802 104.195082,92.1109208 104.261276,92.1176967 C104.330985,92.124178 104.410359,92.1309539 104.499692,92.1374352 C104.592246,92.1442111 104.688315,92.1509871 104.797565,92.157763 C104.903592,92.1642443 105.00962,92.1674849 105.112133,92.1674849 C105.545908,92.1674849 105.923156,92.0808711 106.250611,91.9044029 C106.578652,91.7282293 106.849872,91.4816452 107.065442,91.1684805 C107.283648,90.8523696 107.442689,90.4794001 107.551938,90.0466259 C107.657673,89.6138516 107.710687,89.1377704 107.710687,88.6180878 C107.710687,87.5427807 107.498925,86.7570701 107.071885,86.2574205 C106.644846,85.7545304 106.016003,85.5050002 105.188285,85.5050002 C105.098952,85.5050002 105.016356,85.5050002 104.936689,85.5082408 C104.860537,85.5114815 104.781163,85.5150168 104.70501,85.5179628 C104.625636,85.5214981 104.542747,85.5250333 104.456636,85.528274 C104.370525,85.5315146 104.271527,85.5382905 104.162278,85.5447718 C104.122444,85.5447718 104.072652,85.5515477 104.009973,85.5680456 C103.950223,85.5848381 103.917126,85.6278503 103.917126,85.7015015 L103.917126,91.6015493 L103.937042,91.8943864 Z M99.5740957,98.6835511 C99.5210819,98.6835511 99.4979433,98.6505554 99.4979433,98.5872154 L99.4979433,98.1774203 C99.4979433,98.170939 99.5008723,98.1541465 99.504387,98.1308727 C99.5111236,98.1111342 99.5342622,98.097877 99.5740957,98.097877 C99.7925945,98.097877 99.9979131,98.0642921 100.189759,98.0012467 C100.381604,97.9343714 100.547382,97.8477576 100.689436,97.7381647 C100.831782,97.6282772 100.944546,97.4951158 101.027142,97.3383862 C101.113253,97.1819511 101.156308,97.0122588 101.156308,96.8290147 L101.156308,86.9199864 C101.156308,86.5938591 101.123504,86.337553 101.057017,86.1543089 C100.994045,85.9678241 100.898269,85.8278869 100.772324,85.7347918 C100.646673,85.6381615 100.487632,85.5813028 100.295493,85.558029 C100.107163,85.5347553 99.885149,85.5250333 99.6335532,85.5250333 L99.1965556,85.5250333 C99.123625,85.5250333 99.0741259,85.4849671 99.0410289,85.401594 C99.0079319,85.3217561 98.991237,85.2519348 98.991237,85.1918354 C98.991237,85.1585451 98.9979735,85.1119976 99.0114467,85.0454169 C99.0246269,84.9820769 99.0609457,84.9420107 99.1171813,84.9287535 L99.1801535,84.9287535 C99.2164723,84.9287535 99.2794445,84.9287535 99.3687771,84.9255128 C99.4616245,84.9222721 99.5805394,84.9187369 99.7328442,84.9157908 C99.885149,84.9122556 100.083731,84.9054797 100.331812,84.8989984 C100.686214,84.8922225 101.066976,84.8822059 101.470876,84.8721894 C101.874777,84.8589321 102.281899,84.8456749 102.695758,84.8321231 C103.109617,84.8188659 103.519962,84.8056087 103.923569,84.7991274 C104.32747,84.7891108 104.708232,84.7823349 105.062634,84.7823349 L106.429569,84.7823349 C106.949163,84.7823349 107.452647,84.8721894 107.942659,85.0454169 C108.435599,85.2221797 108.87289,85.4814318 109.253359,85.8214056 C109.633828,86.1643255 109.941952,86.5870832 110.173631,87.093214 C110.40531,87.6025855 110.524518,88.1885542 110.524518,88.8511201 C110.524518,89.2673965 110.461546,89.6636398 110.338823,90.0466259 C110.216394,90.4263713 110.051202,90.7757724 109.839146,91.0954185 C109.630606,91.4115293 109.385747,91.7014203 109.111012,91.9577264 C108.836278,92.2140325 108.54807,92.4305669 108.25049,92.6070351 C107.949102,92.7835033 107.640978,92.9166646 107.33344,93.006519 C107.061927,93.0766349 106.807109,93.1131659 106.565472,93.1131659 L106.459444,93.1131659 L104.142068,92.9965025 L104.062987,92.9965025 C104.019639,92.9965025 103.986834,93.0032784 103.966918,93.0165356 C103.946708,93.0297928 103.933528,93.04305 103.927084,93.0566018 C103.920348,93.0666184 103.917126,93.0931328 103.917126,93.133199 L103.917126,96.8025003 C103.917126,97.0555657 103.986834,97.2650296 104.125666,97.4282406 C104.264791,97.5949868 104.446678,97.7281481 104.671913,97.8244839 C104.893634,97.9211142 105.14523,97.9909355 105.423186,98.0342424 C105.701142,98.0775493 105.976169,98.097877 106.247682,98.097877 C106.284001,98.097877 106.307139,98.107599 106.313583,98.1276321 C106.320613,98.1476652 106.323542,98.1641631 106.323542,98.1774203 L106.323542,98.6069539 C106.323542,98.6169705 106.320613,98.6337629 106.310654,98.6535014 C106.300403,98.6738292 106.277264,98.6835511 106.247682,98.6835511 L99.5740957,98.6835511 Z M76.6964503,98.6835511 C76.6832701,98.6835511 76.666868,98.6767752 76.6501731,98.6602773 C76.6302563,98.6437795 76.6202979,98.6237464 76.6202979,98.6069539 L76.6202979,98.1774203 C76.6202979,98.1240968 76.6469512,98.097877 76.6964503,98.097877 L76.9380877,98.097877 C77.0309351,98.097877 77.1202677,98.0943418 77.2063785,98.0875659 C77.2924893,98.0807899 77.3718635,98.0746032 77.4445012,98.0675327 C77.5142099,98.0610514 77.5704455,98.0507403 77.6102791,98.0310018 C77.7690276,97.9511639 77.9049303,97.8477576 78.0074432,97.7181316 C78.109956,97.5882109 78.1893302,97.4382571 78.2458588,97.2685649 C78.2985796,97.098578 78.3351914,96.9156285 78.3551082,96.7123512 C78.3750249,96.5129039 78.3846904,96.2960748 78.3846904,96.0698184 L78.3846904,86.3240012 C78.3846904,86.147533 78.3152746,86.0078904 78.17615,85.9012435 C78.0373183,85.7910613 77.8750551,85.7115181 77.6928752,85.6546594 C77.5074734,85.6016305 77.3188497,85.5650995 77.1302261,85.5447718 C76.9380877,85.5250333 76.7957413,85.5150168 76.6964503,85.5150168 C76.6633533,85.5150168 76.6434365,85.5050002 76.633771,85.4849671 C76.6238126,85.464934 76.6202979,85.4481415 76.6202979,85.4348843 L76.6202979,85.0088859 C76.6202979,84.9956287 76.6238126,84.9785416 76.633771,84.9588031 C76.6434365,84.9390646 76.6633533,84.9287535 76.6964503,84.9287535 L81.0892722,84.9287535 L89.4510986,94.2350205 C89.4841956,94.2686055 89.5041124,94.2918792 89.5175855,94.3083771 C89.5304729,94.3251696 89.5471678,94.3316509 89.5667917,94.3316509 C89.593445,94.3316509 89.61014,94.3216343 89.6165836,94.3051364 C89.6233202,94.2851033 89.6233202,94.2653648 89.6233202,94.2450371 L89.6233202,88.4516362 C89.6233202,87.8055681 89.6034034,87.292956 89.5571262,86.9034886 C89.510849,86.5172619 89.42796,86.220595 89.3055304,86.0176123 C89.1831008,85.8113891 89.0176157,85.6779331 88.8090753,85.6116471 C88.6034638,85.5483071 88.3386878,85.5150168 88.0144543,85.5150168 L87.5212211,85.5150168 C87.4881241,85.5150168 87.4682073,85.5050002 87.4582489,85.4849671 C87.4482905,85.464934 87.4418468,85.4481415 87.4418468,85.4348843 L87.4418468,85.0088859 C87.4418468,84.9956287 87.4482905,84.9785416 87.4582489,84.9588031 C87.4682073,84.9390646 87.4881241,84.9287535 87.5212211,84.9287535 L92.8542322,84.9287535 C92.8937729,84.9287535 92.9169115,84.9390646 92.9236481,84.9588031 C92.9303846,84.9785416 92.9336065,84.9956287 92.9336065,85.0088859 L92.9336065,85.4348843 C92.9336065,85.4481415 92.9268699,85.464934 92.9169115,85.4849671 C92.907246,85.5050002 92.8870363,85.5150168 92.8542322,85.5150168 C92.725066,85.5150168 92.5592881,85.5418258 92.3542624,85.5913194 C92.1524586,85.6446428 91.9538765,85.7179994 91.7585163,85.8178704 C91.5631562,85.9145007 91.3973782,86.0341102 91.2585466,86.1775827 C91.119422,86.3207605 91.0500061,86.4839715 91.0500061,86.666921 L91.0500061,98.2042293 C91.0500061,98.3173575 91.0236457,98.4072119 90.9738537,98.4838091 C90.9211328,98.5571657 90.8546459,98.6169705 90.7749788,98.6638126 C90.6923827,98.7103601 90.606272,98.7436505 90.5137175,98.7669242 C90.4176483,98.790198 90.3318304,98.79992 90.255678,98.79992 C90.1265118,98.79992 89.974207,98.7737001 89.8055002,98.7168414 C89.6332786,98.6638126 89.4642788,98.5406678 89.295572,98.3506478 L80.1391246,88.138766 C80.0963621,88.0922184 80.0629722,88.0654094 80.0433483,88.0553929 C80.0234315,88.0456709 79.9970711,88.0421357 79.9671959,88.0421357 C79.9340989,88.0421357 79.9174039,88.0718907 79.9174039,88.138766 L79.9174039,96.8487532 C79.9174039,97.0319973 79.9604593,97.188727 80.0465701,97.3218883 C80.1359027,97.4550496 80.248374,97.5681778 80.3842767,97.6648081 C80.5201795,97.7579032 80.6689695,97.8345004 80.8344546,97.8878239 C80.9999396,97.944388 81.1586881,97.9879895 81.3177294,98.0209852 C81.4764779,98.0542755 81.6191172,98.0746032 81.7447686,98.0843252 C81.8704201,98.0943418 81.9664893,98.097877 82.0329762,98.097877 C82.0625585,98.097877 82.08599,98.1111342 82.0988773,98.137354 C82.1056139,98.1509059 82.1091286,98.1641631 82.1091286,98.1774203 L82.1091286,98.6069539 C82.1091286,98.6169705 82.1056139,98.6337629 82.0956555,98.6535014 C82.08599,98.6738292 82.0625585,98.6835511 82.0329762,98.6835511 L76.6964503,98.6835511 Z M73.5914826,96.8290147 C73.5914826,97.0520304 73.6245797,97.2352745 73.6939955,97.3852283 C73.7637042,97.5348875 73.8597734,97.6547916 73.9854249,97.7478867 C74.1110763,97.8380357 74.2668959,97.9043217 74.4522977,97.9411473 C74.6341847,97.980919 74.8395033,98.0012467 75.0679605,98.0012467 C75.1174596,98.0012467 75.1441129,98.0274665 75.1441129,98.0775493 L75.1441129,98.6069539 C75.1441129,98.6237464 75.1408911,98.6437795 75.1341545,98.6602773 C75.127418,98.6767752 75.1042794,98.6835511 75.0679605,98.6835511 L69.3342706,98.6835511 C69.3014665,98.6835511 69.2815497,98.6738292 69.2715913,98.6535014 C69.2616329,98.6337629 69.2584111,98.6169705 69.2584111,98.6069539 L69.2584111,98.0775493 C69.2584111,98.0642921 69.2616329,98.0507403 69.2715913,98.0310018 C69.2815497,98.0109686 69.3014665,98.0012467 69.3342706,98.0012467 C69.559506,98.0012467 69.7648245,97.9844542 69.9502264,97.9576452 C70.1356282,97.9275955 70.2911548,97.8645501 70.420321,97.7679198 C70.5491943,97.6680488 70.652,97.5281116 70.7214158,97.3484027 C70.7943464,97.1654532 70.8274434,96.9188691 70.8274434,96.6059989 L70.8274434,86.7832899 C70.8274434,86.5605687 70.7943464,86.37703 70.7281524,86.2276655 C70.6584437,86.0777117 70.5626674,85.9578076 70.436723,85.8644179 C70.3110716,85.7745635 70.1555449,85.7115181 69.9698502,85.6714518 C69.7847413,85.6313856 69.5794227,85.6116471 69.3541874,85.6116471 C69.3014665,85.6116471 69.278035,85.5848381 69.278035,85.5347553 L69.278035,85.0088859 C69.278035,84.9555625 69.3014665,84.9287535 69.3541874,84.9287535 L75.0843626,84.9287535 C75.1174596,84.9287535 75.1408911,84.9390646 75.1473348,84.9588031 C75.1572931,84.9785416 75.1640297,84.9956287 75.1640297,85.0088859 L75.1640297,85.5347553 C75.1640297,85.5483071 75.1572931,85.5650995 75.1473348,85.5813028 C75.1408911,85.6016305 75.1174596,85.6116471 75.0843626,85.6116471 C74.8594201,85.6116471 74.6541015,85.6278503 74.4686997,85.6546594 C74.2868126,85.684709 74.1277713,85.7480491 73.9986051,85.84792 C73.8697318,85.9445504 73.7701479,86.084193 73.6975102,86.2671425 C73.6280944,86.4471459 73.5914826,86.6937301 73.5914826,87.0066002 L73.5914826,96.8290147 Z M55.7589337,98.1874368 C55.7589337,98.1809555 55.7621556,98.1641631 55.7653774,98.1408893 C55.7721139,98.1211508 55.7952526,98.107599 55.8350861,98.107599 L56.0468484,98.107599 C56.318361,98.0875659 56.5963172,98.0775493 56.88101,98.0746032 C57.1657029,98.071068 57.4240352,98.0342424 57.6589361,97.9676617 C57.8906151,97.8978404 58.0827535,97.7779363 58.2315436,97.6050034 C58.3774047,97.4350165 58.4532642,97.1654532 58.4532642,96.8025003 L58.4532642,86.8133396 C58.4532642,86.5570335 58.4005433,86.3508102 58.2977376,86.1940805 C58.1952247,86.0341102 58.0596149,85.9044841 57.8906151,85.8078538 C57.7219083,85.7079828 57.5332846,85.6381615 57.3180077,85.5883733 C57.1062454,85.5382905 56.8877466,85.4982243 56.6692478,85.464934 L56.4639292,85.464934 C56.434054,85.464934 56.4109154,85.455212 56.400957,85.4348843 C56.3909986,85.4183864 56.3877768,85.401594 56.3877768,85.3883367 L56.3877768,85.0088859 C56.3877768,84.9956287 56.3909986,84.9785416 56.400957,84.9588031 C56.4109154,84.9390646 56.434054,84.9287535 56.4639292,84.9287535 L66.1232754,84.9287535 C66.2424832,84.9287535 66.3253721,84.9487866 66.3783859,84.9920935 C66.4281779,85.0354003 66.460982,85.1284954 66.4741622,85.2719679 L66.6496056,88.3915368 C66.6496056,88.4251217 66.6200233,88.4483955 66.5670095,88.4648934 C66.5107739,88.4816858 66.460982,88.4881671 66.4147047,88.4881671 C66.3652057,88.4881671 66.3121919,88.4849265 66.2591781,88.4716693 C66.2093861,88.4584121 66.1730673,88.4383789 66.1534434,88.4118645 C66.1068733,88.3449893 66.0769981,88.2518942 66.0570813,88.1255088 C66.0374575,87.9955881 66.0175407,87.8556509 65.9944021,87.6992158 C65.9709706,87.5427807 65.9381664,87.3795697 65.8983329,87.2128235 C65.8552775,87.0431312 65.7925982,86.8866961 65.7064874,86.7435182 C65.6235985,86.6003404 65.5076125,86.473955 65.3620443,86.3673081 C65.216476,86.2606612 65.0310742,86.1875992 64.8058388,86.147533 L61.3432478,86.147533 C61.2606517,86.147533 61.2175963,86.1908399 61.2175963,86.274213 L61.2175963,90.9289669 C61.2175963,90.9920123 61.2506933,91.0255972 61.3136655,91.0255972 L64.0876631,91.0255972 C64.2499263,91.0255972 64.4086748,91.0052695 64.5674232,90.9622572 C64.7264646,90.9186557 64.8655892,90.8423531 64.984797,90.7324655 C65.1040048,90.622578 65.2032958,90.4693836 65.2759335,90.2696416 C65.348864,90.0731403 65.3886976,89.8168342 65.3886976,89.503964 C65.3886976,89.4538813 65.415058,89.4270722 65.4645571,89.4270722 L65.8420973,89.4270722 C65.8951111,89.4270722 65.9214715,89.4538813 65.9214715,89.503964 L65.9214715,93.9722332 C65.9214715,94.0055235 65.9115131,94.025262 65.8915963,94.0355732 C65.8719724,94.0455897 65.8552775,94.0485358 65.8420973,94.0485358 L65.4645571,94.0485358 C65.431753,94.0485358 65.4118362,94.0388138 65.4018778,94.0223159 C65.3916265,94.0019882 65.3886976,93.9854904 65.3886976,93.9722332 C65.3886976,93.6089856 65.348864,93.3129079 65.2759335,93.0898921 C65.2032958,92.8633412 65.1040048,92.6901136 64.9812823,92.5637282 C64.8588526,92.4373428 64.7165062,92.350729 64.5577578,92.3074221 C64.3987164,92.2673559 64.2332314,92.2440821 64.057788,92.2440821 L61.3136655,92.2440821 C61.2506933,92.2440821 61.2175963,92.2773725 61.2175963,92.3439531 L61.2175963,96.6059989 C61.2175963,96.7957244 61.2474715,96.9456781 61.3034142,97.0588063 C61.3631646,97.1719345 61.4428317,97.2585483 61.5418298,97.318353 C61.6411208,97.3752117 61.7571068,97.4149834 61.886273,97.4350165 C62.0154392,97.4550496 62.151049,97.4647716 62.2933954,97.4647716 L64.9417416,97.4647716 C65.315767,97.4647716 65.6300421,97.3784524 65.8816379,97.2052248 C66.1335266,97.0319973 66.3385523,96.8225334 66.494079,96.5762439 C66.6496056,96.3296598 66.7623697,96.0733537 66.8385221,95.8067365 C66.9111598,95.5404138 66.9577299,95.3109168 66.9773538,95.1241374 C66.9908269,95.0378183 67.0335894,94.970943 67.1032982,94.9243955 C67.1762287,94.8743127 67.255603,94.8510389 67.3481574,94.8510389 C67.3780326,94.8510389 67.4178662,94.8645907 67.4641434,94.8878645 C67.5071988,94.9143789 67.5303374,94.9447232 67.5303374,94.9777189 L67.2093257,98.5471491 C67.1993673,98.5804395 67.1794506,98.6104891 67.156312,98.6402442 C67.1363952,98.6702939 67.10652,98.6835511 67.0766448,98.6835511 L55.8350861,98.6835511 C55.7952526,98.6835511 55.7721139,98.6738292 55.7653774,98.6505554 C55.7621556,98.6272816 55.7589337,98.6104891 55.7589337,98.6069539 L55.7589337,98.4673113 L55.7589337,98.1874368 Z M46.4633617,98.4204691 C46.3807657,98.4204691 46.3277519,98.3506478 46.3113498,98.2139513 C46.2384193,97.6050034 46.1821836,97.1289222 46.1455719,96.7924837 C46.1060312,96.4528045 46.0793779,96.1997391 46.0629758,96.0297522 C46.0465738,95.8600599 46.0363225,95.7537076 46.0331007,95.7036248 C46.0298788,95.6538366 46.0298788,95.6202517 46.0298788,95.6002186 C46.0298788,95.5303973 46.059754,95.4505594 46.125948,95.3671863 C46.1886273,95.2841078 46.2680015,95.2405063 46.357627,95.2405063 C46.4238211,95.2405063 46.4932369,95.2808671 46.5661675,95.3574643 C46.6423199,95.4340615 46.7117357,95.5271566 46.7811515,95.6305629 C46.8473456,95.7333799 46.9070959,95.8403214 46.9533731,95.943433 C47.0031651,96.0465447 47.0330403,96.1199012 47.0462205,96.1664488 C47.2149273,96.5261611 47.3968144,96.8254794 47.5956893,97.0685283 C47.7910495,97.3118717 48.015992,97.5083731 48.2675878,97.6547916 C48.5226984,97.8012101 48.8038765,97.907857 49.1216663,97.971197 C49.4394561,98.0377777 49.8003013,98.0675327 50.2074238,98.0675327 C50.899239,98.0675327 51.4387495,97.9043217 51.8227333,97.5717131 C52.2067172,97.2388098 52.3988555,96.7058699 52.3988555,95.9699474 C52.3988555,95.5504304 52.3095229,95.1642037 52.1241211,94.8212838 C51.9387193,94.4751233 51.7003037,94.1554773 51.4024307,93.859105 C51.1045576,93.5627327 50.7636292,93.2828582 50.3828672,93.0165356 C50.0021052,92.750213 49.6113848,92.4803551 49.2109989,92.2072565 C48.8070983,91.9344526 48.4166708,91.6480969 48.0359088,91.3517246 C47.6551468,91.0553523 47.3142183,90.7292249 47.0163453,90.3727532 C46.7216941,90.0130409 46.4800567,89.6170922 46.2946549,89.1807827 C46.1124749,88.7477138 46.0199204,88.2551348 46.0199204,87.7092324 C46.0199204,87.3763291 46.0793779,87.0699402 46.1985857,86.7832899 C46.3177935,86.4972287 46.4768348,86.2373874 46.6786387,86.0011145 C46.8775136,85.7677876 47.1124145,85.558029 47.3804124,85.3715443 C47.6487031,85.1885948 47.9366178,85.0321597 48.2412274,84.9054797 C48.5423222,84.7790943 48.8536684,84.6827585 49.1647217,84.6158833 C49.4792897,84.5525433 49.7836064,84.519253 50.0814794,84.519253 C50.3234097,84.519253 50.5618253,84.5392861 50.8034627,84.582593 C51.048322,84.6258998 51.2867376,84.675688 51.5216384,84.7357874 C51.760054,84.7923515 51.9949549,84.8553969 52.2365923,84.9255128 C52.4750079,84.9920935 52.7102017,85.0554335 52.9418807,85.1152382 L53.583904,85.0554335 C53.6401396,85.0554335 53.6799732,85.0819479 53.6963753,85.1284954 C53.7098484,85.1785782 53.7230286,85.2221797 53.7297652,85.2616567 L54.0109432,87.5527973 C54.0109432,87.585793 53.9681807,87.6093614 53.8852918,87.6226186 C53.799181,87.6358758 53.7362088,87.6423571 53.6899316,87.6423571 C53.650098,87.6423571 53.5938624,87.6358758 53.5144882,87.6258592 C53.4383358,87.6161373 53.3920585,87.6058261 53.3788783,87.5925689 C53.3586687,87.5725358 53.33553,87.5324696 53.3059478,87.4691296 C53.2792944,87.4093248 53.2464903,87.3395035 53.2166151,87.2664415 C53.1835181,87.1895497 53.1504211,87.1132471 53.1138094,87.0366499 C53.0774906,86.9565174 53.0411717,86.8902314 53.0013382,86.830132 C52.6902849,86.3508102 52.2928279,85.9910979 51.8095531,85.7545304 C51.3230564,85.5150168 50.7899896,85.3983533 50.2074238,85.3983533 C49.9558279,85.3983533 49.7209271,85.428403 49.4992064,85.4849671 C49.2807076,85.5447718 49.0885693,85.6381615 48.9295279,85.7645469 C48.7675576,85.8912269 48.6383914,86.0509027 48.545837,86.247404 C48.4529896,86.44037 48.4031977,86.6769376 48.4031977,86.9500361 C48.4031977,87.3462794 48.496045,87.7056971 48.6814468,88.0253432 C48.8668486,88.3485245 49.1084861,88.6513781 49.4098738,88.9344932 C49.7077469,89.2173137 50.0518971,89.4907068 50.435881,89.7567349 C50.8198648,90.0230575 51.213807,90.296156 51.6109711,90.5727898 C52.008428,90.8488344 52.3988555,91.141966 52.7828393,91.4551308 C53.1668232,91.768001 53.5109735,92.1109208 53.8123612,92.4903716 C54.113749,92.8668764 54.3553864,93.2863935 54.5372735,93.7492174 C54.7226753,94.2085061 54.8155226,94.7278941 54.8155226,95.3073815 C54.8155226,95.6936083 54.7493286,96.0497853 54.6166477,96.3826886 C54.4845526,96.7123512 54.3055945,97.0154994 54.0771373,97.2853573 C53.8521948,97.5549206 53.5871259,97.7914882 53.2828091,98.0012467 C52.9781995,98.20747 52.6536732,98.3839382 52.3095229,98.5238754 C51.9618579,98.6638126 51.6077492,98.7669242 51.2404604,98.8399862 C50.8761004,98.9098075 50.5187699,98.9466331 50.1711049,98.9466331 C49.7308855,98.9466331 49.3469016,98.9133428 49.0191534,98.8500027 C48.694627,98.7837167 48.413449,98.7103601 48.1782552,98.6302277 C47.9398396,98.5471491 47.7412576,98.4737926 47.5789944,98.4104526 C47.4202459,98.3441665 47.2846361,98.3141168 47.1718719,98.3141168 C47.1355531,98.3141168 47.1056779,98.3173575 47.0857611,98.3238388 L46.4633617,98.4204691 Z M35.9200619,98.4204691 C35.8374659,98.4204691 35.7844521,98.3506478 35.7677571,98.2139513 C35.6951195,97.6050034 35.6388839,97.1289222 35.6022721,96.7924837 C35.5627315,96.4528045 35.5360781,96.1997391 35.5196761,96.0297522 C35.5029811,95.8600599 35.4930227,95.7537076 35.4898009,95.7036248 C35.4865791,95.6538366 35.4865791,95.6202517 35.4865791,95.6002186 C35.4865791,95.5303973 35.5161613,95.4505594 35.5826482,95.3671863 C35.6453275,95.2841078 35.7247018,95.2405063 35.8143273,95.2405063 C35.8805213,95.2405063 35.9499371,95.2808671 36.0228677,95.3574643 C36.0990201,95.4340615 36.1684359,95.5271566 36.2378518,95.6305629 C36.3040458,95.7333799 36.3637961,95.8403214 36.4100734,95.943433 C36.4598653,96.0465447 36.4894476,96.1199012 36.5029207,96.1664488 C36.6716276,96.5261611 36.8535146,96.8254794 37.0523896,97.0685283 C37.2477498,97.3118717 37.4726922,97.5083731 37.724288,97.6547916 C37.9791057,97.8012101 38.2605767,97.907857 38.5783665,97.971197 C38.8961563,98.0377777 39.2570015,98.0675327 39.664124,98.0675327 C40.3559392,98.0675327 40.8954497,97.9043217 41.2794335,97.5717131 C41.6634174,97.2388098 41.8555557,96.7058699 41.8555557,95.9699474 C41.8555557,95.5504304 41.7662231,95.1642037 41.5808213,94.8212838 C41.3954195,94.4751233 41.1570039,94.1554773 40.8591309,93.859105 C40.5612578,93.5627327 40.2203294,93.2828582 39.8395674,93.0165356 C39.4588054,92.750213 39.068085,92.4803551 38.6676991,92.2072565 C38.2637985,91.9344526 37.873371,91.6480969 37.492609,91.3517246 C37.111847,91.0553523 36.7709186,90.7292249 36.4730455,90.3727532 C36.1783943,90.0130409 35.9367569,89.6170922 35.7513551,89.1807827 C35.5691751,88.7477138 35.4766207,88.2551348 35.4766207,87.7092324 C35.4766207,87.3763291 35.5360781,87.0699402 35.6552859,86.7832899 C35.7744937,86.4972287 35.9332422,86.2373874 36.1353389,86.0011145 C36.333921,85.7677876 36.5688218,85.558029 36.8371126,85.3715443 C37.1054033,85.1885948 37.393318,85.0321597 37.6979276,84.9054797 C37.9990225,84.7790943 38.3103686,84.6827585 38.6214219,84.6158833 C38.935697,84.5525433 39.2403066,84.519253 39.5381796,84.519253 C39.7801099,84.519253 40.0182326,84.5392861 40.2598701,84.582593 C40.5050222,84.6258998 40.7434378,84.675688 40.9783387,84.7357874 C41.2167543,84.7923515 41.4516551,84.8553969 41.6932925,84.9255128 C41.9317081,84.9920935 42.1669019,85.0554335 42.3985809,85.1152382 L43.0406042,85.0554335 C43.0968399,85.0554335 43.1366734,85.0819479 43.1530755,85.1284954 C43.1665486,85.1785782 43.1797288,85.2221797 43.1861725,85.2616567 L43.4676435,87.5527973 C43.4676435,87.585793 43.4245881,87.6093614 43.341992,87.6226186 C43.2558812,87.6358758 43.192909,87.6423571 43.1466318,87.6423571 C43.1067982,87.6423571 43.0505626,87.6358758 42.9711884,87.6258592 C42.895036,87.6161373 42.8487588,87.6058261 42.8355785,87.5925689 C42.8153689,87.5725358 42.7922303,87.5324696 42.762648,87.4691296 C42.7359946,87.4093248 42.7031905,87.3395035 42.6733154,87.2664415 C42.6399255,87.1895497 42.6068285,87.1132471 42.5705096,87.0366499 C42.5341908,86.9565174 42.497579,86.8902314 42.4580384,86.830132 C42.1466922,86.3508102 41.7495282,85.9910979 41.2662533,85.7545304 C40.7797566,85.5150168 40.2466898,85.3983533 39.664124,85.3983533 C39.4125282,85.3983533 39.1773344,85.428403 38.9559067,85.4849671 C38.7374079,85.5447718 38.5452695,85.6381615 38.3862281,85.7645469 C38.2242578,85.8912269 38.0950916,86.0509027 38.0022443,86.247404 C37.9096898,86.44037 37.8598979,86.6769376 37.8598979,86.9500361 C37.8598979,87.3462794 37.9527452,87.7056971 38.138147,88.0253432 C38.323256,88.3485245 38.5651863,88.6513781 38.8662811,88.9344932 C39.1641542,89.2173137 39.5085973,89.4907068 39.8925812,89.7567349 C40.276565,90.0230575 40.6705072,90.296156 41.0676713,90.5727898 C41.4651282,90.8488344 41.8555557,91.141966 42.2395396,91.4551308 C42.6235234,91.768001 42.9676737,92.1109208 43.2690614,92.4903716 C43.5704492,92.8668764 43.8120866,93.2863935 43.9939737,93.7492174 C44.1793755,94.2085061 44.2722229,94.7278941 44.2722229,95.3073815 C44.2722229,95.6936083 44.205736,96.0497853 44.0733479,96.3826886 C43.9412528,96.7123512 43.7622947,97.0154994 43.5338375,97.2853573 C43.3086021,97.5549206 43.0438261,97.7914882 42.7395094,98.0012467 C42.4348998,98.20747 42.1103734,98.3839382 41.7662231,98.5238754 C41.4185581,98.6638126 41.0644495,98.7669242 40.6968677,98.8399862 C40.3328006,98.9098075 39.9754701,98.9466331 39.6278051,98.9466331 C39.1875857,98.9466331 38.8036019,98.9133428 38.4755608,98.8500027 C38.1513273,98.7837167 37.8698563,98.7103601 37.6349554,98.6302277 C37.3965398,98.5471491 37.1979578,98.4737926 37.0356946,98.4104526 C36.8766532,98.3441665 36.7410434,98.3141168 36.6285722,98.3141168 C36.5922533,98.3141168 36.5623782,98.3173575 36.5424614,98.3238388 L35.9200619,98.4204691 Z M20.8117187,91.3585005 C20.8117187,91.8846644 20.8650254,92.4105338 20.97076,92.9366977 C21.0767876,93.4661023 21.2355361,93.9722332 21.4408547,94.4583309 C21.6493951,94.9476692 21.9042127,95.4040119 22.2056005,95.8300102 C22.5102101,96.2563032 22.8575822,96.6260321 23.2450808,96.9421429 C23.6322864,97.2585483 24.0660622,97.5051324 24.5393787,97.6845467 C25.0159169,97.8613095 25.529067,97.9511639 26.0852724,97.9511639 C26.8696421,97.9511639 27.5482771,97.7847122 28.1243993,97.4485683 C28.6970068,97.1153704 29.173838,96.6690443 29.5543071,96.116366 C29.9318473,95.5636876 30.2133182,94.9311714 30.3984272,94.2117468 C30.5806071,93.4929113 30.6734545,92.750213 30.6734545,91.9810002 C30.6734545,91.4218405 30.6204407,90.8756434 30.5144131,90.3397575 C30.4083856,89.8003364 30.2528589,89.2906703 30.0478332,88.8078132 C29.8457365,88.3217155 29.5909188,87.8753894 29.2927529,87.4691296 C28.991658,87.0634589 28.6442859,86.7102279 28.2535655,86.410615 C27.8628451,86.1142427 27.4293622,85.8812104 26.9557529,85.7144641 C26.4792146,85.5483071 25.9628428,85.464934 25.4066373,85.464934 C24.9101823,85.464934 24.450046,85.5447718 24.0294505,85.7015015 C23.6091478,85.8544013 23.2319005,86.0676951 22.8909721,86.337553 C22.5532655,86.6100623 22.2518777,86.930003 21.9938382,87.3062132 C21.7355059,87.6791827 21.5202289,88.0822019 21.3447855,88.5182168 C21.169635,88.9545263 21.0369541,89.413815 20.9476214,89.8999127 C20.855067,90.3827698 20.8117187,90.8691621 20.8117187,91.3585005 L20.8117187,91.3585005 Z M25.6415382,98.9366165 C25.413081,98.9366165 25.1319029,98.9165834 24.7909745,98.8800524 C24.4532679,98.8399862 24.0792424,98.7669242 23.6753418,98.6638126 C23.2714412,98.5604064 22.8511385,98.4240044 22.4106262,98.2540175 C21.9704067,98.0843252 21.5401457,97.8677908 21.1163283,97.6050034 C20.6928038,97.3416268 20.2889032,97.0287566 19.9081412,96.6690443 C19.5273792,96.3096266 19.1931873,95.8901096 18.9052726,95.4107878 C18.6170651,94.934412 18.3886079,94.3885096 18.2166792,93.7757318 C18.0444576,93.1661948 17.9583468,92.4803551 17.9583468,91.7179182 C17.9583468,91.0420951 18.0511942,90.396027 18.236596,89.7770626 C18.4184831,89.1607496 18.6832591,88.5850921 19.0277023,88.0521522 C19.3686307,87.5159717 19.7857115,87.0331146 20.2722082,86.5970997 C20.7589978,86.1607902 21.3049519,85.7910613 21.9077275,85.4849671 C22.5066954,85.1785782 23.1621918,84.9420107 23.8639655,84.7723184 C24.5689609,84.6026261 25.3105682,84.519253 26.0852724,84.519253 C26.7571709,84.519253 27.4094455,84.6026261 28.0415104,84.7687831 C28.6706464,84.9355294 29.2599488,85.1685617 29.8094176,85.4714153 C30.3588865,85.7745635 30.8617852,86.1342758 31.3186996,86.5570335 C31.775614,86.9797912 32.1663344,87.4529263 32.4973045,87.9723143 C32.8250527,88.4914078 33.0830922,89.0541027 33.2620503,89.6568639 C33.4439374,90.2560898 33.53327,90.8821247 33.53327,91.5349687 C33.53327,92.1442111 33.4471592,92.750213 33.2720087,93.3526795 C33.0997871,93.9554407 32.8446766,94.5281522 32.5172212,95.0778845 C32.1859583,95.6305629 31.7887942,96.1363991 31.3186996,96.6059989 C30.848605,97.0753042 30.3257895,97.4818586 29.7432236,97.8312598 C29.1606578,98.1774203 28.5247852,98.4505188 27.83297,98.6437795 C27.1411547,98.8399862 26.4097988,98.9366165 25.6415382,98.9366165 L25.6415382,98.9366165 Z M0.0760059531,98.6835511 C0.0432018423,98.6835511 0.0232850608,98.6738292 0.01332667,98.6535014 C0.00336827923,98.6337629 0.000146446923,98.6169705 0.000146446923,98.6069539 L0.000146446923,98.0775493 C0.000146446923,98.0642921 0.00336827923,98.0507403 0.01332667,98.0310018 C0.0232850608,98.0109686 0.0432018423,98.0012467 0.0760059531,98.0012467 C0.278102707,98.0012467 0.479906567,97.9844542 0.682003321,97.9576452 C0.887321907,97.9275955 1.07272371,97.8645501 1.24143057,97.7679198 C1.41013742,97.6680488 1.54604017,97.5281116 1.65177485,97.3484027 C1.76102425,97.1654532 1.81403804,96.9188691 1.81403804,96.6059989 L1.81403804,86.830132 C1.81403804,86.6100623 1.7777192,86.4238722 1.70478863,86.274213 C1.63537279,86.1242592 1.53608178,86.0043551 1.40691559,85.9109654 C1.2777494,85.8143351 1.12222277,85.7448084 0.940042799,85.7015015 C0.758155721,85.6546594 0.559573693,85.6249043 0.337853051,85.6116471 C0.288061098,85.6116471 0.261407758,85.5848381 0.261407758,85.5347553 L0.261407758,85.0088859 C0.261407758,84.9555625 0.284546372,84.9287535 0.327601767,84.9287535 L6.07125009,84.9287535 C6.10434709,84.9287535 6.12397098,84.9390646 6.13422227,84.9588031 C6.14388776,84.9785416 6.1471096,84.9956287 6.1471096,85.0088859 L6.1471096,85.5347553 C6.1471096,85.5712862 6.12074915,85.5913194 6.07125009,85.5913194 C5.87588989,85.5913194 5.69048809,85.6116471 5.50830812,85.6446428 C5.32642104,85.6814684 5.16737968,85.7480491 5.03147694,85.84792 C4.89615998,85.9445504 4.78661768,86.0809523 4.70402162,86.2606612 C4.61791082,86.44037 4.57807726,86.6769376 4.57807726,86.966534 L4.57807726,90.985531 C4.57807726,91.0521116 4.58803565,91.0954185 4.6047306,91.115157 C4.62435449,91.1319495 4.66770278,91.141966 4.73038206,91.141966 L11.5000375,91.141966 C11.5662315,91.141966 11.6092869,91.1319495 11.6292037,91.115157 C11.6456058,91.0954185 11.6555642,91.0521116 11.6555642,90.985531 L11.6555642,86.8133396 C11.6555642,86.5838425 11.5861483,86.3973578 11.4438019,86.247404 C11.3014555,86.0974502 11.1224974,85.9778407 10.9042914,85.8912269 C10.6890145,85.8010779 10.4541136,85.7380325 10.2025178,85.6947256 C9.95092197,85.6514187 9.71572822,85.6249043 9.50367307,85.6116471 C9.45095218,85.6116471 9.42429884,85.5848381 9.42429884,85.5347553 L9.42429884,85.0088859 C9.42429884,84.9555625 9.44773035,84.9287535 9.49400757,84.9287535 L15.9622753,84.9287535 C15.9953723,84.9287535 16.0152891,84.9390646 16.0252474,84.9588031 C16.0352058,84.9785416 16.0416495,84.9956287 16.0416495,85.0088859 L16.0416495,85.5347553 C16.0416495,85.5712862 16.0152891,85.5913194 15.9622753,85.5913194 C15.7669151,85.5913194 15.5782914,85.6116471 15.3964044,85.6446428 C15.2107097,85.6814684 15.0452246,85.7480491 14.8996564,85.84792 C14.7540882,85.9445504 14.6381022,86.0809523 14.5519914,86.2606612 C14.4626588,86.44037 14.4196034,86.6769376 14.4196034,86.966534 L14.4196034,96.6260321 C14.4196034,96.7957244 14.4459638,96.9456781 14.492534,97.0788394 C14.5423259,97.2120008 14.6181854,97.3451621 14.7206983,97.4747881 C14.823504,97.6182606 14.9957256,97.7381647 15.2309193,97.8345004 C15.4658202,97.9311308 15.8000121,97.9879895 16.2337879,98.0012467 C16.2868017,98.0012467 16.3131621,98.0274665 16.3131621,98.0775493 L16.3131621,98.6069539 C16.3131621,98.6570367 16.2868017,98.6835511 16.2337879,98.6835511 L9.19261981,98.6835511 C9.1595228,98.6835511 9.13989892,98.6738292 9.12994052,98.6535014 C9.11968924,98.6337629 9.1167603,98.6169705 9.1167603,98.6069539 L9.1167603,98.0775493 C9.1167603,98.0642921 9.11968924,98.0507403 9.12994052,98.0310018 C9.13989892,98.0109686 9.1595228,98.0012467 9.19261981,98.0012467 C9.38798,98.0012467 9.62317376,97.9879895 9.90113002,97.9611804 C10.1793792,97.9343714 10.4505989,97.8781019 10.7121531,97.7914882 C10.9737073,97.7048744 11.1954279,97.5746591 11.3808297,97.4117427 C11.5630097,97.2452911 11.6555642,97.0190347 11.6555642,96.7323843 L11.6555642,92.5171807 C11.6555642,92.4538407 11.6456058,92.4105338 11.6292037,92.3907953 C11.6092869,92.3704675 11.5662315,92.3639862 11.5000375,92.3639862 L4.73038206,92.3639862 C4.66770278,92.3639862 4.62435449,92.3704675 4.6047306,92.3907953 C4.58803565,92.4105338 4.57807726,92.4538407 4.57807726,92.5171807 L4.57807726,96.8290147 C4.57807726,97.0520304 4.62435449,97.2352745 4.7239384,97.3852283 C4.81971468,97.5348875 4.94565904,97.6547916 5.1044075,97.7478867 C5.26344886,97.8380357 5.44533594,97.9043217 5.65387636,97.9411473 C5.85919494,97.980919 6.07447192,98.0012467 6.29297073,98.0012467 C6.3325114,98.0012467 6.35565001,98.0109686 6.36238657,98.0310018 C6.36912313,98.0507403 6.37234496,98.0642921 6.37234496,98.0775493 L6.37234496,98.6069539 C6.37234496,98.6169705 6.36912313,98.6337629 6.36238657,98.6535014 C6.35565001,98.6738292 6.33602613,98.6835511 6.30292912,98.6835511 L0.0760059531,98.6835511 Z" id="Fill-15" fill="#480000"></path>
                <g id="Group-19" transform="translate(112.178343, 84.237788)">
                    <mask id="mask-2" fill="white">
                        <use xlink:href="#path-1"></use>
                    </mask>
                    <g id="Clip-18"></g>
                    <path d="M38.1094434,7.29726941 C38.11618,7.3470576 38.1293602,7.39360514 38.1524988,7.43691203 C38.1759303,7.48021891 38.2222076,7.50349268 38.2916234,7.51026859 C38.3510809,7.51674989 38.4371917,7.52676645 38.5563995,7.54355892 C38.6723854,7.56035138 38.8346486,7.57007334 39.0399672,7.57007334 C39.6090599,7.57007334 40.0791546,7.48021891 40.4464434,7.30345611 C40.8140252,7.13081777 41.1054546,6.89425021 41.3172168,6.59787791 C41.5324938,6.30150561 41.6780621,5.96182642 41.760951,5.57913495 C41.8403253,5.19614887 41.8798659,4.79666493 41.8798659,4.38038853 C41.8798659,3.944079 41.8136719,3.53133785 41.6780621,3.13862982 C41.5424522,2.74886784 41.3535357,2.4124293 41.1086764,2.12607356 C40.867039,1.84001242 40.5759025,1.60992617 40.2381959,1.44376913 C39.8972675,1.27378223 39.5229491,1.19040911 39.1161196,1.19040911 C39.0264941,1.19040911 38.9570782,1.19040911 38.9040645,1.19394436 C38.8510507,1.19718502 38.8012587,1.20072027 38.7549815,1.20366632 C38.7054824,1.20720158 38.6492468,1.21044223 38.5894965,1.21397748 C38.5268172,1.21721813 38.4407064,1.22045879 38.331457,1.22723469 C38.2916234,1.22723469 38.2418315,1.23725125 38.182374,1.25374911 C38.1194018,1.26700632 38.0898196,1.31355386 38.0898196,1.38366978 L38.0898196,7.00413776 L38.1094434,7.29726941 Z M33.3956099,13.939721 C33.3956099,13.9329451 33.3991246,13.9164472 33.4055683,13.8931735 C33.4123048,13.8731404 33.4354435,13.8598831 33.4717623,13.8598831 C33.5115959,13.8598831 33.574568,13.8531072 33.6571641,13.83985 C33.7400531,13.8265928 33.8293857,13.8165763 33.9187183,13.803319 C34.0080509,13.7897672 34.0941617,13.7729748 34.1703141,13.7567715 C34.2496883,13.7432197 34.3027021,13.7299625 34.3357991,13.7231866 C34.703088,13.6401081 34.9614204,13.5004654 35.1069886,13.3104454 C35.2528498,13.1171848 35.3254874,12.8773766 35.3254874,12.5913154 L35.3254874,2.68228718 C35.3254874,2.35615981 35.2560716,2.09955913 35.1204617,1.90983372 C34.984559,1.72334897 34.8290324,1.58017109 34.6500742,1.48678141 C34.4749237,1.39368633 34.3027021,1.33358698 34.13751,1.31060782 C33.9717321,1.28733405 33.8624827,1.27702288 33.8030252,1.27702288 L33.4354435,1.27702288 C33.4023464,1.27702288 33.3824297,1.26700632 33.3724713,1.24726781 C33.3625129,1.22723469 33.3560692,1.21044223 33.3560692,1.19718502 L33.3560692,0.771186657 C33.3560692,0.757929446 33.3592911,0.740842375 33.3660276,0.724344514 C33.3724713,0.711087303 33.3956099,0.697830093 33.4354435,0.691054185 L33.4784988,0.691054185 C33.5016375,0.691054185 33.5479147,0.691054185 33.6176234,0.687518929 C33.6902611,0.684572883 33.7930668,0.681037626 33.9286767,0.677796975 C34.0642865,0.674556324 34.2564249,0.667780416 34.5012842,0.661299113 C34.8556857,0.654523206 35.2361548,0.644506647 35.6400554,0.634490088 C36.043956,0.621232877 36.4545932,0.607975667 36.8681593,0.594423852 C37.2820183,0.581166642 37.6891408,0.567909431 38.0930414,0.561428128 C38.496942,0.55141157 38.8774111,0.544635662 39.2350345,0.544635662 L40.2147644,0.544635662 C40.7246926,0.544635662 41.2442863,0.634490088 41.7741312,0.807717637 C42.3036833,0.984185837 42.7837363,1.24373256 43.2139974,1.58341174 C43.6442585,1.92662619 43.9983671,2.3493839 44.2733944,2.85551473 C44.547836,3.36459161 44.6837387,3.95085491 44.6837387,4.61342082 C44.6837387,5.04295444 44.6242813,5.42269987 44.5085882,5.7588438 C44.3923093,6.09498773 44.2335609,6.39165464 44.0285352,6.64796071 C43.8264384,6.90426677 43.584801,7.13081777 43.30333,7.32378383 C43.021859,7.52028515 42.7143205,7.6935127 42.3865723,7.84317187 L45.3228331,12.5244402 C45.5776507,12.9274593 45.8687872,13.293653 46.2067867,13.6200749 C46.5442004,13.9497376 46.9349208,14.1792346 47.3815839,14.3094499 C47.4313759,14.3227071 47.4612511,14.3392049 47.4712095,14.3624787 C47.4808749,14.3860471 47.4879044,14.4125615 47.4879044,14.4458518 C47.4879044,14.5424822 47.4612511,14.6090628 47.4082373,14.6423532 C47.3584453,14.6721082 47.2758493,14.6889007 47.1665999,14.6889007 C46.8950873,14.6889007 46.5872558,14.6721082 46.2398837,14.6355773 C45.8954406,14.5990463 45.5477756,14.5424822 45.1968887,14.4591091 C44.8495166,14.3792712 44.5182537,14.2729189 44.2039786,14.1427036 C43.8891177,14.0130776 43.6278564,13.8498666 43.4125794,13.6569005 C43.2072608,13.4736564 42.9957915,13.2441594 42.7837363,12.9639903 C42.5687523,12.6844105 42.3531824,12.3815569 42.1381983,12.0619108 C41.9232142,11.7387295 41.7079372,11.4025856 41.4991039,11.0564251 C41.2876346,10.7067293 41.0855378,10.3670501 40.8866629,10.0373875 C40.6913027,9.70448421 40.4994572,9.39456009 40.320792,9.10820434 C40.1389049,8.82214321 39.973127,8.57909435 39.824044,8.37935238 L38.3112473,8.27270549 L38.2353878,8.27270549 C38.1888177,8.27270549 38.1557207,8.27594614 38.1396115,8.28920335 C38.1194018,8.30275516 38.1062216,8.31601237 38.0997779,8.32926959 C38.0930414,8.3425268 38.0898196,8.36933582 38.0898196,8.4058668 L38.0898196,12.564801 C38.0898196,12.7377339 38.1129582,12.8909284 38.1557207,13.020849 C38.2019979,13.1504751 38.2784432,13.2638979 38.3841779,13.356993 C38.4902054,13.4533287 38.6290371,13.5302205 38.8012587,13.5867846 C38.9734803,13.646884 39.1820207,13.6898962 39.4271729,13.7231866 C39.4667135,13.7299625 39.5229491,13.739979 39.5958797,13.7532363 C39.6720321,13.7664935 39.7514063,13.7800453 39.840739,13.7965431 C39.9268498,13.813041 40.0129606,13.8265928 40.0958495,13.83985 C40.1816674,13.8531072 40.2513761,13.8598831 40.3111265,13.8598831 C40.3506672,13.8598831 40.3705839,13.8698997 40.3770276,13.8899328 C40.3837642,13.9096713 40.386986,13.9264638 40.386986,13.939721 L40.386986,14.3692546 C40.386986,14.3792712 40.3837642,14.3960637 40.3738058,14.4158022 C40.3638474,14.4358353 40.3439306,14.4458518 40.3111265,14.4458518 L33.4717623,14.4458518 C33.4418871,14.4458518 33.4187485,14.3990097 33.4087901,14.3094499 C33.3991246,14.2193008 33.3956099,14.1326871 33.3956099,14.0560899 L33.3956099,13.939721 Z M18.8004166,2.39917209 C18.8004166,2.20915207 18.7576541,2.04299504 18.6715433,1.89657651 C18.5822107,1.74986339 18.4662248,1.62671863 18.3174347,1.5300883 C18.1683517,1.43375257 17.9961301,1.35686075 17.8007699,1.30707256 C17.6089245,1.25374911 17.4003841,1.22723469 17.1818852,1.22723469 C17.1288715,1.22723469 17.1022181,1.20072027 17.1022181,1.15063748 L17.1022181,0.771186657 C17.1022181,0.717863211 17.1253567,0.691054185 17.1719269,0.691054185 L23.302488,0.691054185 C23.3323631,0.691054185 23.3555017,0.701070744 23.3654601,0.721103862 C23.3751256,0.740842375 23.3786404,0.757929446 23.3786404,0.771186657 L23.3786404,1.15063748 C23.3786404,1.16389469 23.3751256,1.18039255 23.3654601,1.19718502 C23.3555017,1.21721813 23.3323631,1.22723469 23.302488,1.22723469 C23.1071278,1.22723469 22.9088386,1.2404919 22.7032271,1.26700632 C22.5014233,1.29381535 22.3127996,1.35037945 22.140871,1.44376913 C21.9718712,1.53362355 21.8327466,1.66678487 21.7237901,1.83647716 C21.6174697,2.00970471 21.5647488,2.24273701 21.5647488,2.53586866 L21.5647488,9.37482158 C21.5647488,10.673439 21.8957188,11.6789247 22.5544371,12.3915734 C23.2134482,13.1039275 24.1996218,13.4603992 25.5138365,13.4603992 C26.0568617,13.4603992 26.5764554,13.3835074 27.0729104,13.2306076 C27.5728802,13.0774131 28.0098778,12.8443808 28.3938617,12.5244402 C28.7746237,12.2050887 29.0789404,11.7985342 29.3041758,11.3059552 C29.5291182,10.8098409 29.6451042,10.2206316 29.6451042,9.53773796 L29.6451042,3.48125506 C29.6451042,3.26177458 29.6351458,3.03168833 29.6187437,2.79865603 C29.6020488,2.56562373 29.549035,2.34260799 29.4597024,2.13609011 C29.3703698,1.92662619 29.2280234,1.74662273 29.0326632,1.5934283 C28.8375959,1.44023387 28.5625685,1.33358698 28.2084599,1.27702288 C28.0464896,1.25050846 27.9138087,1.23725125 27.8045593,1.233716 C27.6985317,1.23047534 27.6291158,1.22723469 27.5960188,1.22723469 C27.5465198,1.22723469 27.5198664,1.20072027 27.5198664,1.15063748 L27.5198664,0.771186657 C27.5198664,0.717863211 27.5465198,0.691054185 27.5960188,0.691054185 L32.6607392,0.691054185 C32.6906144,0.691054185 32.713753,0.701070744 32.7237114,0.721103862 C32.7336698,0.740842375 32.7368916,0.757929446 32.7368916,0.771186657 L32.7368916,1.15063748 C32.7368916,1.16389469 32.730448,1.18039255 32.7172677,1.19718502 C32.7037946,1.21721813 32.6870997,1.22723469 32.6607392,1.22723469 C32.4258384,1.22723469 32.2205198,1.24726781 32.0450764,1.28026353 C31.8664111,1.31708912 31.7308013,1.3536201 31.6411757,1.39368633 C31.5319263,1.44023387 31.4326353,1.51005518 31.3400809,1.60344486 C31.2507483,1.69653994 31.174303,1.79994618 31.1113308,1.90629847 C31.0518733,2.01294536 31.0055961,2.12312751 30.9724991,2.2359611 C30.939695,2.35262455 30.923,2.44925488 30.923,2.53586866 L30.923,8.77854171 C30.923,9.69446765 30.8037922,10.5199499 30.5653767,11.2529264 C30.327254,11.9817783 29.9661158,12.6045726 29.482841,13.1139441 C29.002788,13.6236102 28.3970835,14.0195589 27.6657276,14.2961927 C26.9340787,14.5722372 26.0800003,14.7089338 25.1034922,14.7089338 C24.6401341,14.7089338 24.1600811,14.6721082 23.6633332,14.6022869 C23.1700999,14.529225 22.6868251,14.4158022 22.2199523,14.2593671 C21.7501506,14.102932 21.3099311,13.90319 20.8960721,13.6569005 C20.4822131,13.4067812 20.1213679,13.1139441 19.8100217,12.767489 C19.4989685,12.4245692 19.2541092,12.0253798 19.0719292,11.5790538 C18.893264,11.129487 18.8004166,10.6233562 18.8004166,10.0574206 L18.8004166,2.39917209 Z M2.96393928,7.12050661 C2.96393928,7.64696516 3.01695306,8.1728345 3.12298063,8.69899845 C3.22871531,9.22840305 3.38775667,9.73423928 3.59278236,10.2206316 C3.80161568,10.70997 4.05643332,11.1663126 4.35782109,11.592311 C4.6621378,12.0183093 5.00980279,12.3880382 5.39730135,12.7044436 C5.78450701,13.020849 6.21798991,13.2674331 6.69130636,13.4468474 C7.16813754,13.6236102 7.68099467,13.71317 8.23749298,13.71317 C9.0218627,13.71317 9.70049774,13.547013 10.2766199,13.2105744 C10.8492274,12.8773766 11.3260586,12.4313451 11.7065277,11.8786667 C12.0840679,11.3259883 12.3655388,10.6931775 12.5506478,9.97404748 C12.7325348,9.25521208 12.8256751,8.51251369 12.8256751,7.74330089 C12.8256751,7.18384661 12.7723684,6.63794415 12.6666337,6.10176364 C12.560899,5.56234248 12.4050795,5.052971 12.1997609,4.57011394 C11.9979571,4.08401622 11.7431394,3.63769014 11.4449735,3.23143029 C11.1438786,2.82546505 10.7962136,2.47252865 10.4054932,2.17262109 C10.0150657,1.8765434 9.58158283,1.6435111 9.10768059,1.47676485 C8.6311423,1.31060782 8.11506335,1.22723469 7.55856504,1.22723469 C7.06210997,1.22723469 6.60226663,1.30707256 6.18167107,1.46350764 C5.7613684,1.61670207 5.38412113,1.82970125 5.04319269,2.09955913 C4.70519319,2.37236306 4.40409832,2.69230374 4.14576594,3.06851391 C3.88772647,3.44148343 3.67244949,3.84420802 3.49700608,4.28051754 C3.32185556,4.71653246 3.18888175,5.17611575 3.09984202,5.66221347 C3.00699467,6.14507053 2.96393928,6.63116824 2.96393928,7.12050661 L2.96393928,7.12050661 Z M7.7937588,14.6989173 C7.5653016,14.6989173 7.28412351,14.6788841 6.94319507,14.6423532 C6.60548846,14.6022869 6.23117013,14.529225 5.82726952,14.4258187 C5.4233689,14.3227071 5.00335913,14.1863051 4.56284678,14.0163182 C4.12262733,13.8463313 3.69236627,13.6300915 3.26854888,13.3673041 C2.84502437,13.1039275 2.44112376,12.7907628 2.06036176,12.4313451 C1.67959976,12.0719274 1.34540788,11.6521157 1.05720034,11.1727939 C0.769285687,10.6967128 0.540828487,10.1508103 0.368899799,9.53773796 C0.196678218,8.92849549 0.110567427,8.24265581 0.110567427,7.48021891 C0.110567427,6.80439579 0.203121882,6.15832774 0.388816581,5.53906871 C0.570703659,4.92275573 0.835479696,4.3470982 1.17962997,3.81445295 C1.5208513,3.27797783 1.93793213,2.79541538 2.42442881,2.35910585 C2.91092549,1.92309093 3.45717251,1.55336207 4.05965515,1.24726781 C4.65891596,0.940878949 5.31441239,0.704311396 6.01618605,0.534619103 C6.72118153,0.36492681 7.46249586,0.281553688 8.23749298,0.281553688 C8.90939146,0.281553688 9.56137316,0.36492681 10.193731,0.531083847 C10.822867,0.697830093 11.4121694,0.930862391 11.9616382,1.233716 C12.5111071,1.5365696 13.0140058,1.89657651 13.4709202,2.31933422 C13.9278346,2.74209193 14.3182621,3.21522704 14.6492322,3.73432047 C14.9772733,4.25370852 15.2353127,4.81640344 15.4142709,5.41916461 C15.596158,6.01839052 15.6854906,6.64442545 15.6854906,7.29726941 C15.6854906,7.90621727 15.5996727,8.51251369 15.4242293,9.11498025 C15.2520077,9.71774142 14.9968972,10.2904529 14.6694418,10.8398906 C14.3381789,11.392569 13.9410148,11.8986998 13.4709202,12.3682997 C13.0008256,12.8376049 12.4777172,13.2441594 11.8951513,13.5935605 C11.3128784,13.939721 10.6770058,14.2128195 9.98519055,14.4060802 C9.29337529,14.6022869 8.56172646,14.6989173 7.7937588,14.6989173 L7.7937588,14.6989173 Z" id="Fill-17" fill="#480000" mask="url(#mask-2)"></path>
                </g>
                <g id="Group-22" transform="translate(45.691440, 99.851835)" fill="#480000">
                    <path d="M60.4526162,22.1935129 C60.5355051,22.1935129 60.6347962,22.1802557 60.7537111,22.1569819 C60.869697,22.1301729 60.9853901,22.0871606 61.1016689,22.0303019 C61.2170691,21.9704971 61.3233896,21.8971406 61.4226806,21.8105268 C61.5187498,21.720967 61.5946093,21.6175607 61.6444012,21.4908807 L66.5603316,9.24121836 C66.6130524,9.1180736 66.6725099,8.97843099 66.7422186,8.8217013 C66.8084126,8.66526622 66.8880798,8.51531244 66.9738977,8.37566982 C67.0603014,8.2357326 67.1592995,8.11258785 67.2685489,8.00594095 C67.3810201,7.89929406 67.5034497,7.83300801 67.6393525,7.80619899 C67.781406,7.77938996 67.8941701,7.75287554 67.9835028,7.72960177 C68.0696135,7.70279274 68.1358076,7.67657293 68.1853066,7.6497639 C68.2350986,7.62295488 68.2649737,7.59644046 68.278154,7.56315013 C68.2916271,7.5298598 68.2980707,7.48979356 68.2980707,7.44648668 C68.2980707,7.41319635 68.2916271,7.3598729 68.2813758,7.28357029 C68.2749321,7.21021373 68.2418351,7.17368275 68.1923361,7.17368275 L64.3223297,7.17368275 C64.2693159,7.17368275 64.2195239,7.20343782 64.1767614,7.26677783 C64.1304842,7.32658257 64.1073456,7.38344128 64.1073456,7.43647012 C64.1073456,7.52661915 64.1404426,7.59644046 64.1999,7.64622865 C64.2628722,7.69277619 64.3322881,7.72960177 64.4148841,7.75287554 C64.4945513,7.77614931 64.5774402,7.79264717 64.6667728,7.80266373 C64.7528836,7.81297489 64.8258142,7.8259375 64.8852716,7.84626522 C65.0902973,7.91608653 65.2689626,8.02921472 65.4180456,8.17563325 C65.5671285,8.32558703 65.6330296,8.51531244 65.6201423,8.74186343 C65.6201423,8.78841097 65.6166276,8.83495851 65.609891,8.8850413 C65.6034474,8.93482949 65.5867524,9.01142671 65.5571701,9.1180736 C65.527295,9.22472049 65.4810177,9.37762032 65.4116019,9.57765689 C65.3454079,9.77415821 65.2426021,10.0502028 65.1102141,10.3998985 C64.9778261,10.7528349 64.8123411,11.1959204 64.6073154,11.7285656 C64.4052186,12.2612109 64.1536228,12.9105196 63.8557498,13.6797324 C63.8490132,13.6929896 63.8393477,13.716558 63.8258746,13.7530889 C63.8126944,13.7860847 63.7959994,13.8261509 63.7793045,13.8629765 C63.7596806,13.9027481 63.736542,13.9360385 63.7098886,13.9657935 C63.6835282,13.9961378 63.6603896,14.009395 63.6337362,14.009395 C63.587459,14.009395 63.5476255,13.9793453 63.5113066,13.919246 C63.4746949,13.8562006 63.4515563,13.8093584 63.4383761,13.7763627 L61.035182,8.59544491 C61.035182,8.5821877 61.01878,8.54536211 60.9889048,8.48555737 C60.9622515,8.42221736 60.9461423,8.38215112 60.9461423,8.36241261 C60.9461423,8.19242571 60.9824612,8.06604031 61.0583207,7.98266719 C61.1312512,7.89605341 61.2240986,7.83624866 61.333348,7.79618243 C61.4458192,7.75611619 61.5615123,7.73637768 61.6874566,7.72960177 C61.813401,7.72312047 61.9323159,7.71310391 62.0415653,7.6998467 C62.1508147,7.68629488 62.2433692,7.66302111 62.3195216,7.62649013 C62.3924521,7.58995915 62.428771,7.52661915 62.428771,7.43647012 C62.428771,7.41673161 62.4255491,7.36664881 62.4191055,7.2900516 C62.4123689,7.21021373 62.3924521,7.17368275 62.3526186,7.17368275 L57.2316626,7.17368275 C57.1555102,7.17368275 57.0960527,7.20343782 57.0562191,7.27001848 C57.0199003,7.33659913 56.9999835,7.39993914 56.9999835,7.4665198 C56.9999835,7.5363411 57.0199003,7.5929052 57.0629557,7.63650669 C57.1057182,7.67657293 57.1555102,7.71310391 57.2184823,7.73932372 C57.2779398,7.7628921 57.340912,7.78646047 57.4073989,7.80266373 C57.4700781,7.8194562 57.5263138,7.83300801 57.572591,7.84626522 C57.8672422,7.94260095 58.1223527,8.10257129 58.3273784,8.32882768 C58.5359189,8.55184342 58.6914455,8.81522 58.8042096,9.11453835 L62.5183965,16.9062428 L61.2472372,19.8826338 C61.1807503,20.0325876 61.1081126,20.1424751 61.0287384,20.2090558 C60.9490713,20.2788771 60.8732117,20.3389764 60.8002812,20.3887646 C60.6974754,20.4688971 60.571824,20.5287019 60.422741,20.575544 C60.2739509,20.6220915 60.1316045,20.675415 59.9957018,20.741701 C59.8600919,20.805041 59.7443989,20.8884142 59.6515515,20.9847499 C59.5587042,21.0816748 59.5124269,21.2213175 59.5124269,21.404267 C59.5124269,21.5209304 59.5390803,21.6275773 59.5920941,21.720967 C59.6483297,21.8173027 59.7212602,21.8971406 59.8105929,21.9704971 C59.9031473,22.0403184 60.0024383,22.0971771 60.1116877,22.1369488 C60.2209372,22.1767204 60.3366302,22.1935129 60.4526162,22.1935129 L60.4526162,22.1935129 Z M53.2064224,6.98719799 C53.2330758,6.97394078 53.262658,6.96038896 53.2893114,6.94713175 C53.3191866,6.93357994 53.3388104,6.92739324 53.3522836,6.92739324 C53.4647548,6.92739324 53.5174757,7.0069365 53.5174757,7.16337159 L53.5174757,8.8217013 C53.5174757,8.84173442 53.5209904,8.86500819 53.5242123,8.89476326 C53.5274341,8.92481294 53.544129,8.93836475 53.5769331,8.93836475 C53.610323,8.93836475 53.6334617,8.92834819 53.6533784,8.90507442 C53.6732952,8.88150605 53.6929191,8.85823228 53.7128359,8.84173442 C53.8288219,8.68500473 53.9576951,8.51207179 54.1035563,8.31881112 C54.2491245,8.12584506 54.404944,7.94613621 54.5701362,7.77614931 C54.7356212,7.60969767 54.9046209,7.4665198 55.0800644,7.3533916 C55.2555078,7.24026341 55.4242146,7.18369931 55.5932144,7.18369931 C55.7092003,7.18369931 55.8612123,7.21345438 56.0501288,7.28003504 C56.2355306,7.34337504 56.4206395,7.42026686 56.5963758,7.50982668 C56.7747482,7.59644046 56.9273459,7.68629488 57.0532902,7.78292522 C57.1786488,7.87602029 57.2416209,7.95261751 57.2416209,8.01242226 C57.2416209,8.06928096 57.2120387,8.1791685 57.1555102,8.33913884 C57.0960527,8.49881458 57.0231221,8.65878491 56.9370113,8.8217013 C56.8511935,8.98491229 56.7551243,9.12809016 56.6558333,9.25447557 C56.5562493,9.38115558 56.4636949,9.44449558 56.377877,9.44449558 L56.361182,9.44449558 C56.2419743,9.4079646 56.1262812,9.35788181 56.0067805,9.30455836 C55.8843509,9.24799426 55.7651431,9.19467082 55.6427134,9.13810672 C55.5202838,9.08124802 55.3943395,9.03823573 55.268688,9.00170476 C55.1430365,8.96487917 55.0138704,8.94838131 54.8847042,8.94838131 C54.6928587,8.94838131 54.5106787,8.98815294 54.3419719,9.06799081 C54.173265,9.15136393 54.0306257,9.25447557 53.9114179,9.38115558 C53.792503,9.50754098 53.6964338,9.65071885 53.6235033,9.80715394 C53.5537945,9.96358902 53.5174757,10.1103021 53.5174757,10.25348 L53.5174757,14.372348 C53.5174757,14.5585381 53.5573093,14.7185085 53.6399053,14.8451885 C53.7195724,14.9712793 53.8220853,15.0746855 53.9512515,15.1580586 C54.0769029,15.2378965 54.2160275,15.3009419 54.3683323,15.3410081 C54.5171224,15.3846096 54.6662054,15.4176054 54.8085518,15.4444144 C54.9511911,15.4712234 55.0800644,15.4909619 55.1960503,15.5077544 C55.3117434,15.5242523 55.401076,15.5442854 55.4573116,15.5710944 C55.5237985,15.5973142 55.5533808,15.6874632 55.5533808,15.8438983 C55.5533808,16.0336237 55.5237985,16.1337893 55.4573116,16.1470465 L49.8630392,16.1470465 C49.7968452,16.1337893 49.7637482,16.0336237 49.7637482,15.8438983 C49.7637482,15.6874632 49.7968452,15.5973142 49.8630392,15.5710944 C49.9456352,15.5310282 50.064843,15.5009785 50.2203697,15.4777047 C50.3761892,15.4544309 50.5317158,15.4111241 50.6872425,15.3410081 C50.8427691,15.2747221 50.9783789,15.1677806 51.0946578,15.0213621 C51.210058,14.8749435 51.2665865,14.6587037 51.2665865,14.372348 L51.2665865,9.68076853 C51.2665865,9.52433345 51.2267529,9.40089409 51.140935,9.31428031 C51.0580461,9.22472049 50.9520185,9.15784523 50.8228523,9.11453835 C50.693979,9.06799081 50.5548544,9.03145983 50.4057715,9.00170476 C50.2566885,8.97165508 50.114635,8.93836475 49.9787322,8.89829851 C49.9391916,8.8850413 49.9093164,8.86854344 49.8861778,8.84497507 C49.8630392,8.8217013 49.8530808,8.77515376 49.8530808,8.70533245 C49.8530808,8.67204212 49.8630392,8.63845719 49.882956,8.60546147 C49.899358,8.57511719 49.9391916,8.54212146 49.9989419,8.50883113 L53.2064224,6.98719799 Z M48.9228499,15.8536203 C48.9228499,15.8939811 48.9161134,15.9473046 48.9029331,16.0203665 C48.8897529,16.0901878 48.8633925,16.1337893 48.8235589,16.1470465 L43.7623533,16.1470465 C43.7225197,16.1337893 43.6958664,16.0901878 43.6826861,16.0203665 C43.6727277,15.9473046 43.6659912,15.8939811 43.6659912,15.8536203 C43.6659912,15.8206246 43.6762425,15.7705418 43.6923516,15.6974798 C43.7125613,15.6276585 43.7356999,15.584057 43.7623533,15.5710944 C43.8449493,15.5310282 43.9641571,15.5009785 44.1193909,15.4777047 C44.2752104,15.4544309 44.430737,15.4111241 44.5862636,15.3410081 C44.7417903,15.2747221 44.877693,15.1677806 44.993679,15.0213621 C45.1093721,14.8749435 45.1688295,14.6587037 45.1688295,14.372348 L45.1688295,2.99825069 C45.1688295,2.84152101 45.126067,2.71867086 45.043178,2.63205708 C44.9570673,2.54544331 44.8510397,2.47886265 44.7221664,2.43231511 C44.5930002,2.38547297 44.4538756,2.34894199 44.3050856,2.31889232 C44.1560026,2.28913724 44.0136562,2.25555231 43.8780463,2.21548607 C43.7951574,2.185731 43.752102,2.09263593 43.752102,1.94268215 C43.752102,1.91263247 43.7623533,1.86608493 43.7819771,1.81276148 C43.801601,1.75619739 43.8382128,1.7128905 43.8979631,1.67960017 L47.1086654,0.157967027 C47.132097,0.144709816 47.1616792,0.131158001 47.1947762,0.121436047 C47.2281661,0.108178837 47.264485,0.101402929 47.3008038,0.101402929 C47.3538176,0.101402929 47.3869146,0.117900791 47.4003877,0.15443177 C47.4100532,0.188016703 47.4164969,0.251356708 47.4164969,0.334435227 L47.4164969,14.372348 C47.4164969,14.6587037 47.4762472,14.8749435 47.5922332,15.0213621 C47.7079263,15.1677806 47.8435361,15.2747221 47.9990627,15.3410081 C48.1548823,15.4111241 48.3104089,15.4544309 48.4659355,15.4777047 C48.6214622,15.5009785 48.7409629,15.5310282 48.8235589,15.5710944 C48.8502123,15.584057 48.8733509,15.6276585 48.8929748,15.6974798 C48.9131844,15.7705418 48.9228499,15.8206246 48.9228499,15.8536203 L48.9228499,15.8536203 Z M40.0080399,10.0602194 L36.8368783,10.0602194 C36.7838645,10.0602194 36.7443238,10.0369456 36.7109339,9.99039804 C36.6781298,9.94738576 36.6614349,9.86725329 36.6614349,9.75736575 C36.6614349,9.61418787 36.7012684,9.44096033 36.7838645,9.24121836 C36.8635316,9.03823573 36.9859612,8.84497507 37.1482244,8.65524966 C37.3072658,8.46522964 37.5055549,8.30555391 37.7372339,8.1723926 C37.9724277,8.03923128 38.2439403,7.97265063 38.5517717,7.97265063 C38.8133259,7.97265063 39.0447121,8.02243882 39.2567672,8.11936375 C39.4653076,8.21569948 39.6439729,8.35239605 39.7930559,8.52208834 C39.9421388,8.69531589 40.0578319,8.89476326 40.137499,9.1180736 C40.2200951,9.34108934 40.2599286,9.58060294 40.2599286,9.83396296 C40.2599286,9.98391674 40.1770397,10.0602194 40.0080399,10.0602194 L40.0080399,10.0602194 Z M34.3144765,12.1949248 C34.3144765,12.7175535 34.4070309,13.2301657 34.5927256,13.7327612 C34.7746127,14.2356514 35.0461253,14.6852181 35.4002339,15.0847021 C35.7578573,15.4809454 36.1916331,15.8005914 36.7109339,16.0436403 C37.2275987,16.2866892 37.8201229,16.4098339 38.4855777,16.4098339 C38.8133259,16.4098339 39.1639199,16.3535644 39.5315016,16.2336603 C39.9023053,16.1169969 40.2599286,15.9638024 40.6140373,15.7705418 C40.9649241,15.581111 41.299116,15.3613359 41.6069474,15.1179924 C41.9182936,14.8749435 42.1795549,14.6254134 42.3951248,14.372348 C42.4182634,14.3455389 42.4314436,14.3222652 42.4314436,14.3022321 C42.4314436,14.2821989 42.4211923,14.2657011 42.4015684,14.245668 C42.3719862,14.1991204 42.325416,14.1425563 42.2656657,14.072735 C42.209723,14.0058598 42.1499726,13.946055 42.093737,13.8927316 C42.06064,13.8594412 42.0339867,13.846184 42.0143628,13.846184 C42.0008897,13.846184 41.9777511,13.8526653 41.9382104,13.8629765 C41.7692106,13.9993785 41.5905454,14.1357804 41.4051436,14.2721824 C41.2165199,14.408879 41.0179379,14.5352644 40.8026609,14.6451519 C40.5906058,14.7550394 40.3656633,14.8451885 40.1339843,14.9114745 C39.9023053,14.9815904 39.657446,15.0148808 39.4058502,15.0148808 C39.0051714,15.0148808 38.6247023,14.9347483 38.2603424,14.7750726 C37.8994971,14.6186375 37.5784855,14.3820699 37.3002363,14.072735 C37.0222801,13.7663462 36.8040742,13.3866007 36.6382962,12.9441045 C36.4728112,12.4977784 36.3902151,11.9881123 36.3902151,11.4154009 C36.3902151,11.2457086 36.3998806,11.1025307 36.4233122,10.9861618 C36.4464508,10.8694984 36.4895062,10.809399 36.5554073,10.809399 L42.2756241,10.809399 C42.3617349,10.809399 42.4211923,10.7563702 42.4578041,10.6497233 C42.4909011,10.5430764 42.5108179,10.4432054 42.5108179,10.353351 C42.5108179,10.0734766 42.4513604,9.78063951 42.3353744,9.48102656 C42.2193885,9.17787835 42.077335,8.89181721 41.9083352,8.62519998 C41.7393355,8.35887735 41.5606702,8.12584506 41.3688247,7.92286244 C41.1799082,7.72312047 41.0112014,7.58288864 40.8621184,7.50334538 C40.7332451,7.42645356 40.6040789,7.3533916 40.4784275,7.28357029 C40.3524831,7.21698964 40.2168732,7.15689028 40.0710121,7.11034274 C39.9254439,7.06055455 39.7664025,7.02048832 39.5909591,6.99043864 C39.4158086,6.96392422 39.2204484,6.94713175 38.9984348,6.94713175 C38.2603424,6.94713175 37.6048459,7.07675781 37.0257948,7.33659913 C36.4464508,7.59968111 35.9564394,7.96263407 35.5557606,8.43223392 C35.1553747,8.89829851 34.8475433,9.45451214 34.6354881,10.0938043 C34.420504,10.7330964 34.3144765,11.435434 34.3144765,12.1949248 L34.3144765,12.1949248 Z M22.6854192,16.4098339 C22.6356272,16.4098339 22.58935,16.3733029 22.556253,16.2967057 C22.5199342,16.2233491 22.4932808,16.1603037 22.4736569,16.1069803 L19.9014632,9.11453835 C19.7922138,8.81522 19.6334653,8.55184342 19.4281467,8.32882768 C19.2196063,8.10257129 18.9680105,7.94260095 18.6701375,7.84626522 C18.6270821,7.83300801 18.5708464,7.8194562 18.5046524,7.80266373 C18.4416803,7.78646047 18.3787081,7.7628921 18.3160288,7.73932372 C18.2562785,7.71310391 18.2032647,7.67657293 18.1602093,7.63650669 C18.1206686,7.5929052 18.09753,7.5363411 18.09753,7.4665198 C18.09753,7.39993914 18.1171539,7.33659913 18.1569874,7.27001848 C18.1965281,7.20343782 18.2527637,7.17368275 18.3324309,7.17368275 L23.4238046,7.17368275 C23.4633453,7.17368275 23.483262,7.21021373 23.4897057,7.2900516 C23.4964423,7.36664881 23.4996641,7.41673161 23.4996641,7.43647012 C23.4996641,7.52661915 23.4665671,7.58995915 23.3939294,7.62649013 C23.3242207,7.66302111 23.2348881,7.68305423 23.1323752,7.69277619 C23.0295695,7.70279274 22.9170982,7.71310391 22.7914468,7.72312047 C22.6690171,7.73284242 22.556253,7.75611619 22.4537402,7.79264717 C22.3512273,7.8259375 22.2616018,7.8892775 22.192186,7.97589128 C22.1195483,8.06604031 22.0861584,8.19242571 22.0861584,8.36241261 C22.0861584,8.38215112 22.0896731,8.42221736 22.0928949,8.48555737 C22.0996315,8.54536211 22.1028533,8.5821877 22.1028533,8.59544491 L23.9764953,13.719504 C23.9896755,13.7495537 24.0095923,13.7961012 24.0394674,13.8594412 C24.0690497,13.9227812 24.1088833,13.9525363 24.1583823,13.9525363 C24.1850357,13.9525363 24.2149109,13.9360385 24.2412713,13.909524 C24.2711465,13.8794744 24.2975069,13.846184 24.3142019,13.8061178 C24.3341187,13.7663462 24.3505207,13.7298152 24.3637009,13.6929896 C24.3771741,13.656164 24.3868395,13.6328902 24.3935761,13.619633 L26.0818162,9.11453835 C25.969345,8.81522 25.8138184,8.55184342 25.6049851,8.32882768 C25.3999594,8.10257129 25.1451417,7.94260095 24.8501976,7.84626522 C24.8042133,7.83300801 24.7476848,7.8194562 24.6850055,7.80266373 C24.6185186,7.78646047 24.5558393,7.7628921 24.496089,7.73932372 C24.4331168,7.71310391 24.3803959,7.67657293 24.3405623,7.63650669 C24.2975069,7.5929052 24.277883,7.5363411 24.277883,7.4665198 C24.277883,7.39993914 24.2942851,7.33659913 24.3341187,7.27001848 C24.3736593,7.20343782 24.4331168,7.17368275 24.5092692,7.17368275 L29.6106013,7.17368275 C29.650142,7.17368275 29.6735735,7.21021373 29.6767953,7.2900516 C29.6835319,7.36664881 29.6867537,7.41673161 29.6867537,7.43647012 C29.6867537,7.52661915 29.6536567,7.58995915 29.5807261,7.62649013 C29.5113103,7.66302111 29.4219777,7.68305423 29.3191719,7.69277619 C29.2166591,7.70279274 29.1041878,7.71310391 28.9814653,7.72312047 C28.8558139,7.73284242 28.7433426,7.75611619 28.6408298,7.79264717 C28.538024,7.8259375 28.4486914,7.8892775 28.3792756,7.97589128 C28.306345,8.06604031 28.273248,8.19242571 28.273248,8.36241261 C28.273248,8.38215112 28.2767627,8.42221736 28.2832064,8.48555737 C28.28965,8.54536211 28.2931648,8.5821877 28.2931648,8.59544491 L29.881821,12.9470506 C29.8952941,12.9806355 29.9152109,13.027183 29.9447932,13.090523 C29.9746683,13.1503278 30.0145019,13.1800829 30.0675157,13.1800829 C30.0938761,13.1800829 30.1202366,13.1668256 30.1501118,13.1370706 C30.1767651,13.1070209 30.2031255,13.0737306 30.2262642,13.0336643 C30.2494028,12.9971334 30.2660977,12.9570671 30.2792779,12.9237768 C30.2924582,12.8872458 30.3024166,12.863972 30.3091531,12.8507148 L31.752534,9.03470048 C31.7788944,8.96487917 31.7920747,8.8850413 31.7920747,8.80166818 C31.7920747,8.6452331 31.7589777,8.50883113 31.6892689,8.38568638 C31.6233678,8.26578228 31.537257,8.16591129 31.4344513,8.08577882 C31.3319384,8.0027003 31.222689,7.94260095 31.1102178,7.90282932 C30.9942318,7.86600373 30.8949408,7.84626522 30.8023864,7.84626522 C30.6732202,7.84626522 30.5472758,7.81297489 30.4216244,7.74963489 C30.2959729,7.68305423 30.2330007,7.5799426 30.2330007,7.43647012 C30.2330007,7.38344128 30.2529175,7.32658257 30.2991947,7.26677783 C30.345472,7.20343782 30.3917492,7.17368275 30.444763,7.17368275 L34.3343932,7.17368275 C34.3838923,7.18693996 34.4169893,7.22671159 34.4272406,7.29358685 C34.4336843,7.36340816 34.4401279,7.41319635 34.4401279,7.44648668 C34.4401279,7.48979356 34.4336843,7.5298598 34.420504,7.56315013 C34.4070309,7.59644046 34.3774486,7.62649013 34.3279496,7.65624521 C34.2813795,7.68305423 34.2119636,7.70956865 34.1258528,7.73284242 C34.0365202,7.75611619 33.9237561,7.77938996 33.7817026,7.80619899 C33.6393561,7.83300801 33.5134118,7.89929406 33.4076771,8.00594095 C33.3016495,8.11258785 33.2020656,8.23897325 33.1162477,8.38215112 C33.0301369,8.525329 32.9539845,8.67204212 32.8877905,8.82494195 C32.8248184,8.97843099 32.7618462,9.1180736 32.7056106,9.24121836 C32.2721277,10.3798654 31.9045459,11.3388036 31.603451,12.118033 C31.3020633,12.8972624 31.0539822,13.5433304 30.8554001,14.0491666 C30.6600399,14.5552975 30.5077351,14.9515408 30.4017076,15.2311206 C30.2959729,15.510995 30.2163058,15.7142723 30.163292,15.8438983 C30.1102782,15.973819 30.0806959,16.0536569 30.0707375,16.0837065 C30.0607791,16.1134616 30.0575573,16.1270134 30.0575573,16.1270134 C30.0376405,16.173561 30.0109872,16.2301251 29.9781831,16.3034816 C29.9483079,16.3733029 29.9052525,16.4098339 29.8522387,16.4098339 L28.8625504,16.4098339 C28.8127585,16.4098339 28.7697031,16.3733029 28.7333842,16.2967057 C28.6970654,16.2233491 28.670412,16.1603037 28.6504953,16.1069803 L26.5451743,10.3901766 L24.3437842,16.1270134 C24.3238674,16.173561 24.2975069,16.2301251 24.2611881,16.3034816 C24.2280911,16.3733029 24.1818139,16.4098339 24.1320219,16.4098339 L22.6854192,16.4098339 Z M15.1114772,10.0602194 C15.2801841,10.0602194 15.363073,9.98391674 15.363073,9.83396296 C15.363073,9.58060294 15.3232395,9.34108934 15.2406434,9.1180736 C15.1609763,8.89476326 15.0452832,8.69531589 14.8962003,8.52208834 C14.7474102,8.35239605 14.568452,8.21569948 14.3599116,8.11936375 C14.1481494,8.02243882 13.9164703,7.97265063 13.6549161,7.97265063 C13.3470847,7.97265063 13.0755721,8.03923128 12.8403783,8.1723926 C12.6086993,8.30555391 12.4101173,8.46522964 12.2513688,8.65524966 C12.0891056,8.84497507 11.966676,9.03823573 11.8873018,9.24121836 C11.8044128,9.44096033 11.7648721,9.61418787 11.7648721,9.75736575 C11.7648721,9.86725329 11.7812742,9.94738576 11.8143712,9.99039804 C11.8474682,10.0369456 11.8873018,10.0602194 11.9403156,10.0602194 L15.1114772,10.0602194 Z M9.41762086,12.1949248 C9.41762086,11.435434 9.52364843,10.7330964 9.73892541,10.0938043 C9.95068766,9.45451214 10.2585191,8.89829851 10.6591979,8.43223392 C11.0595838,7.96263407 11.5495952,7.59968111 12.1289392,7.33659913 C12.7082832,7.07675781 13.3637796,6.94713175 14.1018721,6.94713175 C14.3235928,6.94713175 14.518953,6.96392422 14.6941035,6.99043864 C14.8698398,7.02048832 15.0285883,7.06055455 15.1744494,7.11034274 C15.3200176,7.15689028 15.4559204,7.21698964 15.5815719,7.28357029 C15.7072233,7.3533916 15.8363895,7.42645356 15.9655557,7.50334538 C16.1146387,7.58288864 16.2833455,7.72312047 16.4719691,7.92286244 C16.6641075,8.12584506 16.8427728,8.35887735 17.0114796,8.62519998 C17.1804794,8.89181721 17.3228258,9.17787835 17.4385188,9.48102656 C17.5545048,9.78063951 17.6139622,10.0734766 17.6139622,10.353351 C17.6139622,10.4432054 17.5940455,10.5430764 17.5612414,10.6497233 C17.5246296,10.7563702 17.4648793,10.809399 17.3790614,10.809399 L11.6588446,10.809399 C11.5926506,10.809399 11.5495952,10.8694984 11.5264566,10.9861618 C11.503025,11.1025307 11.4933595,11.2457086 11.4933595,11.4154009 C11.4933595,11.9881123 11.5759556,12.4977784 11.7414406,12.9441045 C11.9069257,13.3866007 12.1254245,13.7663462 12.4036736,14.072735 C12.6816299,14.3820699 13.0029344,14.6186375 13.3637796,14.7750726 C13.7278467,14.9347483 14.1083158,15.0148808 14.5089946,15.0148808 C14.7605904,15.0148808 15.0054497,14.9815904 15.2371287,14.9114745 C15.4691006,14.8451885 15.6940431,14.7550394 15.9058053,14.6451519 C16.1210823,14.5352644 16.3196643,14.408879 16.508288,14.2721824 C16.6936898,14.1357804 16.872355,13.9993785 17.0413548,13.8629765 C17.0808954,13.8526653 17.104327,13.846184 17.1175072,13.846184 C17.137424,13.846184 17.1637844,13.8594412 17.1968814,13.8927316 C17.253117,13.946055 17.3125745,14.0058598 17.369103,14.072735 C17.4285604,14.1425563 17.4751306,14.1991204 17.5047128,14.245668 C17.5246296,14.2657011 17.534588,14.2821989 17.534588,14.3022321 C17.534588,14.3222652 17.5214078,14.3455389 17.4982692,14.372348 C17.2829922,14.6254134 17.021438,14.8749435 16.7103847,15.1179924 C16.4025533,15.3613359 16.0680685,15.581111 15.7171817,15.7705418 C15.363073,15.9638024 15.0054497,16.1169969 14.634646,16.2336603 C14.2673572,16.3535644 13.9164703,16.4098339 13.5887221,16.4098339 C12.9232673,16.4098339 12.3307431,16.2866892 11.8143712,16.0436403 C11.2947775,15.8005914 10.8610017,15.4809454 10.5033783,15.0847021 C10.1492697,14.6852181 9.87804999,14.2356514 9.69587001,13.7327612 C9.51046821,13.2301657 9.41762086,12.7175535 9.41762086,12.1949248 L9.41762086,12.1949248 Z M4.8991475,4.10036678 C4.8991475,3.85378267 4.8560921,3.6540407 4.76675948,3.50114087 C4.68064869,3.34765184 4.55499723,3.22804234 4.39273404,3.14466922 C4.23369268,3.05805544 4.03511065,3.00149135 3.80343162,2.97173627 C3.56853075,2.94492725 3.30697655,2.92813478 3.01554717,2.92813478 C2.96604811,2.92813478 2.93939477,2.90191497 2.93939477,2.85183217 L2.93939477,2.47208675 C2.93939477,2.4187633 2.96604811,2.39224888 3.01554717,2.39224888 L9.15606666,2.39224888 C9.18945655,2.39224888 9.20908044,2.40197083 9.21903883,2.42229856 C9.22899722,2.44203707 9.23221906,2.45882954 9.23221906,2.47208675 L9.23221906,2.85183217 C9.23221906,2.86508938 9.22899722,2.88158724 9.21903883,2.89837971 C9.20908044,2.91811822 9.18945655,2.92813478 9.15606666,2.92813478 C8.9542628,2.92813478 8.76563916,2.94492725 8.58345919,2.97173627 C8.40157211,3.00149135 8.24253075,3.06453675 8.1069209,3.16470234 C7.97101815,3.26103806 7.86528348,3.40097529 7.78239452,3.58421939 C7.70302028,3.76392824 7.66318672,4.01021775 7.66318672,4.32338252 L7.66318672,16.2436769 C7.66318672,16.7262393 7.61690949,17.2126316 7.52084031,17.70197 C7.42828586,18.1948436 7.28593945,18.6673895 7.09380108,19.1237322 C6.90517745,19.5762449 6.66354002,20.0025379 6.37211065,20.3987812 C6.08097416,20.7950245 5.74326756,21.1414796 5.35254717,21.4378519 C4.96534151,21.7339296 4.52834389,21.9669619 4.03862538,22.1369488 C3.5518358,22.3069357 3.00881061,22.3900142 2.41657926,22.3900142 C1.60877803,22.3900142 1.01947561,22.2933839 0.651893833,22.1036585 C0.281383118,21.9103978 0.0959813134,21.6641083 0.0892447549,21.3644953 C0.0892447549,21.2280934 0.119119927,21.1014133 0.178577378,20.9815092 C0.241549555,20.8583645 0.317701955,20.7552529 0.413771136,20.6618632 C0.506325592,20.5720087 0.612353164,20.5021874 0.728046233,20.448864 C0.844032196,20.3955405 0.959725266,20.3722668 1.07571123,20.3722668 C1.27107142,20.3722668 1.44007117,20.3922999 1.58212469,20.4388474 C1.7244711,20.485395 1.84690073,20.5422537 1.95644302,20.6085397 C2.0621777,20.678361 2.15473216,20.7517176 2.23762112,20.8350907 C2.31699535,20.9149286 2.39988431,20.9915258 2.48921693,21.0581065 C2.57532772,21.1282224 2.66466034,21.1844919 2.76072953,21.2280934 C2.85328398,21.2746409 2.96926994,21.2979147 3.10487979,21.2979147 C3.39630917,21.2979147 3.64116843,21.2381099 3.84648701,21.1214465 C4.04829087,21.004783 4.21729062,20.8451073 4.34967864,20.6385894 C4.48206666,20.4353122 4.58809423,20.1957986 4.66073191,19.9227 C4.73366247,19.6496015 4.78989809,19.3567645 4.82650982,19.0503756 C4.85931393,18.7407461 4.88245255,18.4211 4.88918911,18.0914374 C4.89563277,17.76531 4.8991475,17.4421287 4.8991475,17.1224826 L4.8991475,4.10036678 Z" id="Fill-20"></path>
                </g>
                <path d="M122.703981,58.3710258 L128.881991,61.4967814 C128.74931,61.6452622 125.875729,62.894386 125.443417,63.0852898 C124.864659,63.3404175 124.301131,63.6191135 123.719444,63.865403 C123.398726,64.0012158 122.217192,64.5954334 121.990199,64.6301968 L122.703981,58.3710258 Z M130.700569,62.4188941 L136.863641,65.5431767 C136.413756,66.0799464 132.505967,69.5147423 132.296255,69.8544215 C132.138678,69.2628553 132.027671,68.6170818 131.878588,68.0016527 C131.735656,67.4103811 131.645152,66.7109896 131.479374,66.1429918 C131.31301,65.5726371 131.212255,64.8770755 131.077816,64.2849201 C130.984383,63.8718843 130.690904,62.7665276 130.700569,62.4188941 L130.700569,62.4188941 Z M121.703749,58.6173154 C121.545,58.6526679 116.370738,61.7963944 115.977381,62.0918829 L121.028921,64.6525867 C121.04796,64.0857673 121.46504,61.0595881 121.554666,60.1144963 L121.703749,58.6173154 Z M129.638243,62.2627536 L130.492322,66.0469506 C130.588684,66.5710524 131.330877,69.6216838 131.284307,69.8511808 L122.595025,65.4468409 C122.667663,65.3646462 129.424431,62.2883842 129.638243,62.2627536 L129.638243,62.2627536 Z M137.271643,66.5091854 C137.338715,66.6603176 137.902829,72.6911699 137.901951,73.2058442 L132.799739,70.6195098 C133.131881,70.3531872 133.587624,69.9159938 133.900434,69.6090158 L136.964397,66.7495828 C137.154778,66.563098 137.069839,66.5893179 137.271643,66.5091854 L137.271643,66.5091854 Z M121.482614,81.1949338 L132.096208,71.2864948 L131.887375,71.1763126 C133.722648,72.1066742 135.558214,73.0373304 137.393486,73.9676919 C137.161807,74.1152889 136.682047,74.2829189 136.405263,74.4225615 L133.435026,75.7689049 C132.101188,76.3324837 130.777893,77.0359996 129.444347,77.599873 C128.779771,77.8809258 128.118124,78.1993935 127.466142,78.5040147 L121.482614,81.1949338 Z M121.808312,66.0772949 L120.052413,81.2267511 L131.179743,70.8177787 L121.808312,66.0772949 Z M138.899839,74.1223594 C138.96164,73.9143685 138.896325,73.6663113 138.874651,73.3926236 C138.81285,72.6136888 138.737576,71.8256213 138.661131,71.0475704 C138.507947,69.4864602 138.384639,67.920931 138.233506,66.3595262 C138.081787,64.7889887 138.200116,65.1987838 136.715144,64.4484257 C134.857026,63.509226 122.716576,57.2692044 122.342843,57.2261921 C121.982584,57.1849474 118.849205,59.2312715 118.305009,59.5568097 L115.321299,61.3777612 C114.956353,61.6128557 114.505297,61.7280461 114.56534,62.2636374 L115.532476,66.7728566 C115.840014,68.2759296 116.168934,69.7831271 116.496975,71.2826649 C117.151886,74.2787945 117.798302,77.301733 118.416308,80.3055223 C118.569785,81.0508721 118.767195,81.8150766 118.89519,82.5601319 C119.067704,83.5641446 119.792909,83.0518271 120.798414,82.5760405 C122.169157,81.9276156 123.586763,81.2771285 124.97303,80.6637616 C127.764308,79.4287788 130.551193,78.1278045 133.32812,76.8562908 L138.531086,74.4920882 C138.669625,74.4293375 138.762179,74.3568647 138.822515,74.2764376 L138.899839,74.1223594 Z M115.673065,62.9556638 L120.924944,65.6194793 L120.714061,67.3841613 C120.632636,67.9389019 120.553848,68.5778994 120.507277,69.1470756 C120.411208,70.3204861 120.190659,71.5003778 120.09459,72.6734936 C120.04802,73.2426698 119.969232,73.8816674 119.887807,74.4367026 C119.801403,75.0256173 119.775336,75.6112914 119.686589,76.1981439 L119.286203,79.7625659 L115.673065,62.9556638 Z" id="Fill-23" fill="#480000"></path>
            </g>
        </g>
    </g>
</svg>